<svg xmlns="http://www.w3.org/2000/svg" xmlns:xlink="http://www.w3.org/1999/xlink" width="500" zoomAndPan="magnify" viewBox="0 0 375 374.999991" height="500" preserveAspectRatio="xMidYMid meet" version="1.0"><defs><clipPath id="fcabc9e3db"><path d="M 73.78125 69.042969 L 300 69.042969 L 300 306 L 73.78125 306 Z M 73.78125 69.042969 " clip-rule="nonzero"/></clipPath></defs><g clip-path="url(#fcabc9e3db)"><path fill="#231f20" d="M 294.128906 160.4375 C 293.539062 159.40625 292.851562 158.175781 292.800781 157.882812 C 292.457031 153.703125 290.296875 151 287.199219 151 L 287.050781 151 C 285.921875 151.050781 284.347656 152.625 282.921875 154.492188 L 281.300781 148.25 C 282.136719 146.773438 282.628906 144.5625 282.824219 141.664062 C 283.121094 136.945312 282.382812 130.898438 280.808594 124.753906 C 279.238281 118.609375 276.976562 112.957031 274.46875 108.925781 C 271.765625 104.554688 269.0625 102.585938 266.703125 103.175781 C 261.492188 104.503906 261.738281 117.429688 264.6875 128.882812 C 267.242188 138.859375 272.0625 148.839844 276.679688 150.363281 L 278.15625 156.113281 C 273.832031 158.914062 270.292969 165.011719 272.453125 172.332031 L 273.242188 174.398438 C 275.402344 179.902344 274.566406 185.996094 271.078125 190.765625 L 254.023438 213.867188 L 254.023438 175.136719 C 254.023438 174.644531 253.628906 174.300781 253.1875 174.300781 L 224.039062 174.300781 C 226.203125 167.859375 229.296875 163.585938 230.183594 162.355469 C 232.394531 162.503906 241.09375 162.847656 241.929688 157.488281 C 243.257812 149.035156 244.242188 141.464844 244.535156 139.207031 C 245.371094 139.058594 246.699219 138.46875 247.433594 136.847656 C 248.269531 134.976562 246.601562 131.09375 244.140625 125.835938 C 243.75 125.050781 243.40625 124.3125 243.109375 123.625 C 242.617188 122.542969 242.765625 120.183594 242.914062 117.675781 C 243.207031 112.515625 243.550781 105.78125 239.914062 101.113281 C 242.863281 99.441406 245.078125 97.375 246.550781 94.96875 C 249.792969 89.5625 248.910156 82.53125 243.945312 74.078125 C 243.796875 73.832031 243.550781 73.6875 243.308594 73.6875 C 243.0625 73.636719 242.765625 73.785156 242.570312 73.980469 C 239.667969 77.222656 236.621094 80.027344 235 81.058594 C 237.507812 73.046875 232.886719 69.507812 232.640625 69.359375 C 232.445312 69.210938 232.199219 69.164062 232 69.210938 C 231.757812 69.261719 231.558594 69.359375 231.410156 69.558594 C 231.265625 69.558594 223.203125 80.863281 206.394531 82.679688 C 195.628906 83.8125 187.175781 88.234375 183.785156 94.425781 C 181.964844 97.722656 181.769531 101.210938 183.144531 104.554688 C 179.261719 107.257812 177 111.386719 176.609375 116.59375 C 175.96875 125.441406 181.082031 136.109375 189.289062 143.136719 C 198.332031 150.855469 198.824219 158.324219 198.824219 158.964844 C 198.234375 164.371094 196.808594 167.664062 195.628906 169.53125 C 195.136719 169.484375 194.644531 169.382812 194.105469 169.382812 C 188.402344 168.941406 182.554688 170.613281 176.609375 174.300781 L 74.617188 174.300781 C 74.125 174.300781 73.78125 174.691406 73.78125 175.136719 L 73.78125 304.996094 C 73.78125 305.484375 74.175781 305.828125 74.617188 305.828125 L 253.089844 305.828125 C 253.578125 305.828125 253.921875 305.4375 253.921875 304.996094 L 253.921875 258.449219 C 260.3125 255.300781 262.96875 249.550781 263.113281 249.207031 C 264.050781 247.289062 285.675781 201.972656 287.445312 197.007812 C 288.28125 194.597656 290.050781 192.042969 292.015625 189.144531 C 293.980469 186.292969 296.195312 183.097656 298.0625 179.265625 C 301.207031 172.972656 296.585938 164.8125 294.128906 160.4375 Z M 266.308594 128.34375 C 263.015625 115.367188 264.097656 105.488281 267.097656 104.75 C 267.242188 104.699219 267.34375 104.699219 267.488281 104.699219 C 268.964844 104.699219 270.980469 106.519531 272.945312 109.761719 C 275.355469 113.644531 277.515625 119.101562 279.089844 125.097656 C 280.613281 131.09375 281.300781 136.945312 281.054688 141.515625 C 280.808594 145.644531 279.777344 148.347656 278.304688 148.691406 C 275.253906 149.476562 269.601562 141.320312 266.308594 128.34375 Z M 278.941406 139.105469 C 278.84375 135.371094 278.105469 130.601562 276.878906 125.6875 C 275.207031 119.101562 270.980469 106.863281 266.898438 107.894531 C 265.277344 108.289062 264.539062 110.648438 264.589844 114.875 C 264.6875 118.609375 265.425781 123.378906 266.652344 128.292969 C 268.277344 134.632812 272.257812 146.183594 276.140625 146.183594 C 276.289062 146.183594 276.484375 146.183594 276.632812 146.136719 C 278.304688 145.691406 279.039062 143.332031 278.941406 139.105469 Z M 276.238281 144.414062 C 275.058594 144.710938 271.226562 139.105469 268.375 127.851562 C 267.144531 123.035156 266.40625 118.414062 266.359375 114.824219 C 266.261719 110.746094 267.097656 109.617188 267.34375 109.566406 C 267.390625 109.566406 267.390625 109.566406 267.441406 109.566406 C 268.71875 109.566406 272.40625 115.167969 275.207031 126.128906 C 276.433594 130.949219 277.171875 135.566406 277.222656 139.15625 C 277.320312 143.234375 276.535156 144.367188 276.238281 144.414062 Z M 276.238281 144.414062 " fill-opacity="1" fill-rule="nonzero"/></g><path fill="#ffffff" d="M 89.953125 247.242188 C 88.28125 251.566406 85.726562 258.792969 83.414062 267 C 83.316406 266.949219 83.21875 266.902344 83.121094 266.851562 L 80.8125 266.3125 C 83.957031 256.039062 86.5625 248.863281 88.722656 244.339844 C 89.902344 241.835938 92.605469 240.554688 95.308594 241.144531 L 103.46875 243.015625 L 102.976562 243.605469 C 102.929688 243.652344 102.929688 243.652344 102.878906 243.703125 L 101.652344 245.175781 L 96.390625 243.898438 C 93.6875 243.210938 90.9375 244.636719 89.953125 247.242188 Z M 82.089844 279.730469 C 81.105469 284.695312 84.152344 289.511719 88.96875 290.742188 C 89.65625 290.9375 90.347656 291.035156 91.082031 291.132812 C 91.425781 289.117188 91.96875 287.445312 92.164062 286.757812 C 91.183594 284.351562 91.132812 281.058594 92.164062 276.140625 C 94.621094 264.445312 99.882812 250.484375 101.308594 246.847656 L 96 245.519531 C 94.128906 245.078125 92.261719 246.0625 91.574219 247.832031 C 89.117188 254.269531 84.644531 266.902344 82.089844 279.730469 Z M 197.449219 169.777344 C 198.628906 167.664062 199.953125 164.320312 200.496094 159.210938 C 201.085938 158.175781 204.28125 152.179688 205.507812 139.5 C 206 139.203125 206.886719 138.714844 208.066406 137.679688 C 208.410156 137.386719 208.457031 136.847656 208.164062 136.453125 C 207.867188 136.109375 207.328125 136.058594 206.933594 136.355469 C 205.363281 137.679688 204.425781 138.074219 204.378906 138.125 C 202.953125 138.664062 201.675781 138.515625 200.445312 137.679688 C 198.085938 136.058594 196.515625 131.980469 196.515625 127.507812 C 196.515625 123.527344 197.792969 120.429688 199.757812 119.59375 C 201.527344 118.855469 203.9375 119.9375 206.6875 122.691406 C 206.886719 122.886719 207.179688 122.984375 207.476562 122.9375 C 207.769531 122.886719 208.015625 122.691406 208.113281 122.394531 C 210.964844 115.367188 210.71875 109.027344 210.472656 106.617188 C 212.734375 106.667969 218.582031 106.617188 224.875 105.585938 C 230.230469 104.75 234.65625 103.472656 238.195312 101.703125 C 241.636719 105.929688 241.292969 112.417969 240.996094 117.332031 C 240.847656 120.28125 240.703125 122.640625 241.339844 124.117188 C 241.636719 124.804688 241.980469 125.539062 242.371094 126.328125 C 243.796875 129.425781 246.257812 134.632812 245.667969 135.910156 C 245.027344 137.289062 243.699219 137.335938 243.601562 137.335938 C 243.601562 137.335938 242.519531 137.335938 241.191406 136.601562 C 240.75 136.402344 240.257812 136.550781 240.011719 136.945312 C 239.769531 137.386719 239.964844 137.878906 240.359375 138.125 C 241.242188 138.566406 241.980469 138.8125 242.570312 138.910156 C 242.421875 140.1875 242.078125 142.742188 241.636719 146.085938 C 238.539062 145.644531 233.625 145.691406 233.425781 145.691406 C 232.9375 145.691406 232.589844 146.085938 232.589844 146.578125 C 232.589844 147.070312 232.984375 147.414062 233.425781 147.414062 C 233.476562 147.414062 238.441406 147.363281 241.390625 147.757812 C 240.996094 150.511719 240.554688 153.65625 240.011719 156.949219 C 239.324219 161.273438 229.789062 160.339844 229.691406 160.339844 C 229.691406 160.339844 229.691406 160.339844 229.644531 160.339844 C 229.003906 160.292969 213.964844 159.113281 210.226562 144.023438 C 210.128906 143.578125 209.636719 143.285156 209.195312 143.382812 C 208.753906 143.480469 208.457031 143.972656 208.554688 144.414062 C 211.898438 157.832031 223.746094 161.125 228.019531 161.863281 C 225.808594 164.910156 220.453125 173.5625 219.863281 185.75 C 216.960938 182.902344 213.964844 180.199219 211.015625 177.9375 C 210.671875 177.394531 205.804688 171.597656 197.449219 169.777344 Z M 226.300781 110.597656 C 226.449219 111.042969 226.9375 111.285156 227.429688 111.089844 C 227.480469 111.089844 233.082031 109.027344 236.375 112.613281 C 236.523438 112.808594 236.769531 112.910156 237.015625 112.910156 C 237.210938 112.910156 237.410156 112.808594 237.605469 112.664062 C 237.949219 112.367188 238 111.777344 237.65625 111.433594 C 233.574219 106.960938 227.085938 109.371094 226.839844 109.46875 C 226.347656 109.664062 226.152344 110.15625 226.300781 110.597656 Z M 226.792969 122.9375 C 226.890625 122.984375 226.988281 122.984375 227.136719 122.984375 C 227.480469 122.984375 227.773438 122.789062 227.921875 122.445312 C 227.921875 122.394531 229.640625 118.265625 232.589844 117.382812 C 233.035156 117.234375 233.527344 117.183594 233.96875 117.234375 C 233.179688 117.773438 232.691406 119.054688 232.691406 120.675781 C 232.691406 122.886719 233.574219 124.410156 234.804688 124.410156 C 236.082031 124.410156 236.917969 122.886719 236.917969 120.675781 C 236.917969 119.691406 236.71875 118.855469 236.425781 118.167969 C 236.425781 118.167969 236.476562 118.167969 236.476562 118.21875 C 236.867188 118.464844 237.410156 118.363281 237.65625 117.972656 C 237.898438 117.578125 237.800781 117.039062 237.410156 116.792969 C 235.589844 115.5625 233.769531 115.21875 232 115.757812 C 228.316406 116.890625 226.347656 121.609375 226.25 121.855469 C 226.152344 122.246094 226.347656 122.789062 226.792969 122.9375 Z M 201.332031 121.609375 C 200.890625 121.460938 200.398438 121.757812 200.25 122.199219 C 200.101562 122.640625 200.398438 123.132812 200.839844 123.28125 C 201.035156 123.328125 205.214844 124.605469 204.671875 127.949219 C 204.625 128.195312 204.425781 128.488281 204.132812 128.785156 C 203.492188 129.570312 202.363281 130.847656 204.425781 133.011719 C 204.574219 133.207031 204.820312 133.257812 205.066406 133.257812 C 205.261719 133.257812 205.507812 133.160156 205.65625 133.011719 C 206 132.667969 206 132.128906 205.65625 131.78125 C 204.671875 130.75 204.820312 130.601562 205.460938 129.867188 C 205.804688 129.425781 206.246094 128.933594 206.394531 128.195312 C 206.984375 124.3125 203.347656 122.199219 201.332031 121.609375 Z M 169.039062 182.3125 C 164.171875 186.929688 160.339844 191.304688 157.488281 194.746094 L 161.371094 197.546875 C 172.527344 183.097656 184.621094 173.316406 194.300781 171.351562 C 194.746094 171.253906 195.136719 171.203125 195.582031 171.203125 C 195.039062 171.105469 194.5 171.054688 193.957031 171.007812 C 185.945312 170.417969 177.589844 174.203125 169.039062 182.3125 Z M 131.191406 182.015625 C 129.765625 182.65625 124.703125 185.507812 119.101562 195.878906 C 112.613281 207.871094 108.089844 218.832031 107.253906 220.847656 C 107.449219 221.140625 108.089844 221.828125 109.910156 222.617188 C 114.773438 210.867188 121.261719 197.992188 123.375 194.84375 C 124.359375 193.371094 125.242188 192.09375 126.03125 191.058594 C 126.816406 189.78125 128.585938 187.226562 130.996094 185.949219 C 132.074219 185.261719 133.15625 184.867188 134.335938 184.574219 C 140.285156 183.148438 151.246094 190.371094 151.6875 190.667969 L 155.964844 193.714844 L 157.339844 191.796875 C 154.390625 189.191406 140.480469 177.886719 131.191406 182.015625 Z M 105.632812 241.835938 C 105.140625 236.773438 118.707031 204.96875 124.851562 195.777344 C 130.207031 187.765625 132.175781 186.785156 134.78125 186.144531 C 139.988281 184.867188 150.703125 191.945312 150.753906 191.996094 L 160.339844 198.875 C 156.847656 203.542969 153.40625 208.609375 150.214844 214.113281 C 143.527344 225.515625 138.074219 237.65625 133.992188 250.238281 C 133.992188 250.238281 133.992188 250.191406 133.945312 250.191406 C 131.242188 245.765625 120.132812 243.457031 112.808594 241.933594 L 111.972656 241.734375 C 109.417969 241.195312 107.304688 241.246094 105.632812 241.835938 Z M 133.992188 206.691406 C 132.273438 210.230469 124.652344 226.054688 122.148438 232.839844 C 122 233.28125 122.195312 233.773438 122.640625 233.921875 C 122.738281 233.96875 122.835938 233.96875 122.933594 233.96875 C 123.277344 233.96875 123.621094 233.773438 123.71875 233.429688 C 126.179688 226.792969 133.648438 211.261719 135.46875 207.527344 L 137.925781 208.953125 C 138.320312 209.199219 138.761719 209.296875 139.253906 209.296875 C 139.496094 209.296875 139.695312 209.246094 139.941406 209.199219 C 140.628906 209 141.167969 208.609375 141.511719 207.96875 C 142.25 206.738281 141.808594 205.117188 140.578125 204.378906 L 134.925781 201.136719 C 133.699219 200.398438 132.074219 200.839844 131.339844 202.070312 C 130.601562 203.300781 131.042969 204.921875 132.273438 205.660156 Z M 124.0625 303.667969 C 124.015625 303.570312 123.964844 303.421875 123.964844 303.273438 L 123.964844 297.179688 C 123.230469 297.671875 122.394531 297.964844 121.507812 298.0625 C 121.214844 298.164062 120.871094 298.210938 120.425781 298.210938 C 117.527344 298.210938 111.332031 296.394531 107.449219 295.164062 C 106.515625 294.867188 105.632812 294.574219 104.746094 294.328125 C 99.4375 292.707031 95.507812 291.476562 93.34375 288.824219 C 92.753906 290.984375 91.96875 294.722656 93.097656 297.082031 C 93.539062 297.964844 94.179688 298.554688 95.066406 298.851562 C 95.800781 299.097656 96.539062 299.34375 97.324219 299.636719 C 102.832031 301.503906 110.351562 304.109375 121.261719 304.109375 C 122.394531 304.058594 123.277344 303.914062 124.0625 303.667969 Z M 121.261719 296.34375 C 122.933594 296.246094 124.308594 294.96875 125.488281 292.953125 C 126.375 280.417969 128.734375 267.835938 132.320312 255.5 C 132.46875 254.464844 132.617188 253.628906 132.765625 253.039062 C 132.960938 252.351562 132.863281 251.664062 132.46875 251.027344 C 130.160156 247.242188 119.050781 244.929688 112.414062 243.554688 L 111.53125 243.359375 C 110.449219 243.160156 109.464844 243.015625 108.628906 243.015625 C 107.105469 243.015625 105.878906 243.359375 104.945312 243.996094 C 103.519531 244.980469 103.273438 246.355469 103.222656 246.40625 C 103.222656 246.453125 103.175781 246.503906 103.175781 246.601562 C 103.125 246.75 96.589844 263.167969 93.785156 276.535156 C 91.328125 288.332031 94.820312 289.414062 105.238281 292.65625 C 106.074219 292.902344 107.007812 293.199219 107.941406 293.492188 C 118.410156 296.835938 120.671875 296.492188 120.917969 296.441406 C 121.066406 296.394531 121.164062 296.34375 121.261719 296.34375 Z M 278.746094 150.410156 C 278.648438 150.410156 278.597656 150.460938 278.5 150.460938 L 280.417969 157.980469 C 280.761719 157.441406 281.152344 156.851562 281.546875 156.261719 L 279.925781 149.820312 C 279.53125 150.066406 279.136719 150.265625 278.746094 150.410156 Z M 267.097656 104.75 C 267.242188 104.699219 267.34375 104.699219 267.488281 104.699219 C 268.964844 104.699219 270.980469 106.519531 272.945312 109.761719 C 275.355469 113.644531 277.515625 119.101562 279.089844 125.097656 C 280.613281 131.09375 281.300781 136.945312 281.054688 141.515625 C 280.808594 145.644531 279.777344 148.347656 278.304688 148.742188 C 275.253906 149.527344 269.601562 141.320312 266.308594 128.390625 C 263.015625 115.414062 264.097656 105.535156 267.097656 104.75 Z M 266.949219 107.847656 C 265.328125 108.238281 264.589844 110.597656 264.640625 114.824219 C 264.738281 118.5625 265.472656 123.328125 266.703125 128.246094 C 268.324219 134.585938 272.304688 146.136719 276.1875 146.136719 C 276.335938 146.136719 276.535156 146.136719 276.679688 146.085938 C 278.304688 145.691406 279.039062 143.332031 278.992188 139.105469 C 278.894531 135.371094 278.15625 130.601562 276.925781 125.6875 C 275.207031 119.054688 270.980469 106.863281 266.949219 107.847656 Z M 292.605469 161.273438 C 291.574219 159.457031 291.132812 158.621094 291.082031 157.980469 C 290.886719 155.375 289.707031 152.574219 287.050781 152.671875 C 286.167969 152.769531 283.265625 156.410156 280.710938 160.636719 L 277.566406 165.304688 C 277.417969 165.550781 277.125 165.699219 276.828125 165.699219 C 276.679688 165.699219 276.484375 165.648438 276.335938 165.550781 C 275.945312 165.304688 275.84375 164.765625 276.089844 164.371094 L 278.992188 160.046875 L 278.449219 157.832031 C 274.910156 160.4375 272.160156 165.601562 273.976562 171.695312 L 274.765625 173.660156 C 277.125 179.707031 276.238281 186.441406 272.355469 191.648438 L 246.109375 227.335938 C 245.960938 227.53125 245.714844 227.679688 245.421875 227.679688 C 245.175781 227.679688 244.878906 227.582031 244.730469 227.335938 L 238.636719 219.714844 C 239.03125 219.273438 239.421875 218.832031 239.816406 218.390625 C 241.191406 216.765625 242.570312 215.144531 243.796875 213.523438 C 244.09375 213.128906 243.996094 212.589844 243.652344 212.292969 C 243.308594 212.046875 242.816406 212.097656 242.519531 212.390625 C 242.472656 212.441406 242.472656 212.441406 242.421875 212.441406 C 235.097656 221.925781 225.21875 231.070312 214.601562 238.097656 L 211.457031 240.164062 L 194.746094 213.03125 C 194.5 212.636719 193.957031 212.492188 193.566406 212.734375 C 193.171875 212.980469 193.023438 213.523438 193.269531 213.914062 L 210.472656 241.785156 C 210.570312 241.980469 210.816406 242.128906 211.015625 242.179688 C 211.0625 242.179688 211.160156 242.179688 211.210938 242.179688 C 211.359375 242.179688 211.554688 242.128906 211.703125 242.03125 L 215.585938 239.476562 C 216.027344 239.179688 216.421875 238.933594 216.8125 238.640625 C 220.105469 242.425781 235.394531 259.382812 246.699219 258.496094 C 257.316406 257.660156 261.589844 248.421875 261.640625 248.320312 C 261.886719 247.832031 284.199219 201.1875 285.921875 196.269531 C 286.855469 193.617188 288.625 191.011719 290.738281 188.011719 C 292.65625 185.210938 294.816406 182.066406 296.636719 178.328125 C 299.242188 173.023438 294.964844 165.402344 292.605469 161.273438 Z M 125.6875 296.589844 L 125.6875 302.339844 C 133.011719 301.554688 182.40625 294.820312 214.601562 250.484375 L 214.601562 242.867188 C 207.722656 252.304688 178.277344 288.28125 125.6875 296.589844 Z M 125.6875 296.589844 " fill-opacity="1" fill-rule="nonzero"/><path fill="#a6a6a6" d="M 252.253906 259.136719 L 252.253906 304.058594 L 216.324219 304.058594 L 216.324219 240.898438 C 220.84375 246.0625 234.558594 260.414062 245.8125 260.414062 C 246.15625 260.414062 246.453125 260.414062 246.796875 260.363281 C 248.859375 260.167969 250.628906 259.726562 252.253906 259.136719 Z M 96.835938 301.210938 C 96.046875 300.914062 95.308594 300.667969 94.574219 300.421875 C 93.195312 299.980469 92.214844 299.097656 91.574219 297.769531 C 90.886719 296.34375 90.789062 294.574219 90.886719 292.902344 C 90.101562 292.804688 89.3125 292.65625 88.578125 292.460938 C 82.875 290.984375 79.285156 285.285156 80.417969 279.433594 C 81.15625 275.75 82.039062 272.0625 82.972656 268.574219 C 82.925781 268.574219 82.925781 268.574219 82.875 268.574219 C 82.824219 268.574219 82.726562 268.574219 82.679688 268.574219 L 79.433594 267.835938 C 79.1875 267.785156 78.992188 267.640625 78.894531 267.441406 C 78.796875 267.246094 78.746094 267 78.796875 266.753906 C 82.089844 255.941406 84.792969 248.371094 87.054688 243.652344 C 88.578125 240.410156 92.066406 238.738281 95.554688 239.523438 L 103.960938 241.441406 C 104.058594 238 106.269531 231.464844 109.21875 224.238281 C 105.878906 222.8125 105.484375 221.386719 105.4375 220.992188 C 105.4375 220.847656 105.4375 220.699219 105.484375 220.601562 C 105.535156 220.503906 110.351562 208.410156 117.527344 195.140625 C 123.375 184.328125 128.882812 181.230469 130.40625 180.542969 C 141.023438 175.773438 155.964844 188.40625 158.617188 190.714844 C 161.125 187.816406 164.171875 184.523438 167.761719 181.132812 C 169.824219 179.164062 171.9375 177.445312 174.003906 175.972656 L 75.503906 175.972656 L 75.503906 304.109375 L 106.320312 304.109375 C 102.585938 303.175781 99.488281 302.09375 96.835938 301.210938 Z M 243.652344 212.390625 C 244.042969 212.6875 244.09375 213.226562 243.796875 213.621094 C 242.519531 215.242188 241.191406 216.863281 239.816406 218.488281 L 245.421875 225.464844 L 252.300781 216.128906 L 252.300781 175.921875 L 223.449219 175.921875 C 222.464844 179.214844 221.777344 183.046875 221.679688 187.226562 C 221.679688 187.324219 221.679688 187.421875 221.679688 187.570312 C 231.707031 197.792969 240.40625 209.589844 242.519531 212.492188 C 242.816406 212.144531 243.308594 212.097656 243.652344 212.390625 Z M 103.46875 243.015625 L 103.371094 243.015625 L 102.878906 243.605469 C 103.078125 243.40625 103.273438 243.210938 103.46875 243.015625 Z M 101.847656 245.273438 C 102.042969 244.832031 102.339844 244.292969 102.78125 243.703125 L 101.554688 245.175781 Z M 133.109375 204.234375 L 138.761719 207.476562 C 139.203125 207.722656 139.742188 207.574219 139.988281 207.132812 C 140.234375 206.691406 140.085938 206.148438 139.644531 205.902344 L 133.992188 202.660156 C 133.84375 202.5625 133.699219 202.5625 133.550781 202.5625 C 133.253906 202.5625 132.960938 202.710938 132.765625 203.003906 C 132.519531 203.445312 132.664062 203.988281 133.109375 204.234375 Z M 133.109375 204.234375 " fill-opacity="1" fill-rule="nonzero"/></svg>