<svg xmlns="http://www.w3.org/2000/svg" xmlns:xlink="http://www.w3.org/1999/xlink" width="500" zoomAndPan="magnify" viewBox="0 0 375 374.999991" height="500" preserveAspectRatio="xMidYMid meet" version="1.0"><defs><clipPath id="b688fb6885"><path d="M 82 80 L 295 80 L 295 304.847656 L 82 304.847656 Z M 82 80 " clip-rule="nonzero"/></clipPath><clipPath id="c3cb8984e8"><path d="M 82 80 L 295 80 L 295 304.847656 L 82 304.847656 Z M 82 80 " clip-rule="nonzero"/></clipPath></defs><g clip-path="url(#b688fb6885)"><path fill="#f4f4f4" d="M 291.996094 192.058594 C 290.71875 193.65625 288.269531 195.554688 283.875 195.554688 C 283.484375 195.554688 283.074219 195.539062 282.660156 195.507812 L 275.160156 194.65625 L 275.257812 194.980469 C 276.703125 199.8125 278.121094 205.507812 277.671875 211.167969 C 277.148438 217.660156 273.898438 223.476562 269.183594 226.347656 L 269.152344 226.367188 L 269.128906 226.390625 C 269.101562 226.425781 269.0625 226.453125 269.019531 226.464844 L 268.988281 226.472656 L 268.964844 226.488281 C 267.710938 227.21875 266.371094 227.742188 264.953125 228.050781 C 262.742188 228.464844 260.515625 228.664062 258.269531 228.648438 L 258.125 228.652344 C 257.140625 228.671875 256.15625 228.6875 255.167969 228.703125 L 253.667969 228.726562 C 252.71875 228.742188 251.769531 228.753906 250.820312 228.765625 C 248.625 228.796875 246.351562 228.824219 244.113281 228.882812 L 243.878906 228.890625 L 247.308594 279.613281 C 247.3125 279.664062 247.296875 279.707031 247.257812 279.746094 C 247.222656 279.789062 247.175781 279.8125 247.117188 279.8125 L 243.339844 279.8125 L 243.453125 280.113281 C 246.433594 288.210938 246.410156 298.269531 246.328125 301.160156 L 246.328125 301.199219 L 246.339844 301.238281 C 246.351562 301.261719 246.355469 301.285156 246.355469 301.308594 C 246.355469 301.335938 246.351562 301.359375 246.339844 301.386719 L 246.324219 301.425781 L 246.320312 301.46875 C 246.308594 301.917969 246.300781 302.015625 246.296875 302.039062 C 246.28125 302.378906 246.199219 302.707031 246.050781 303.015625 C 245.90625 303.324219 245.710938 303.597656 245.460938 303.832031 C 245.207031 304.066406 244.925781 304.242188 244.605469 304.367188 C 244.285156 304.492188 243.953125 304.550781 243.613281 304.546875 L 184.28125 304.546875 C 183.949219 304.546875 183.632812 304.484375 183.324219 304.367188 C 183.015625 304.246094 182.738281 304.074219 182.492188 303.847656 C 182.25 303.625 182.054688 303.363281 181.910156 303.066406 C 181.761719 302.769531 181.675781 302.457031 181.648438 302.125 C 181.628906 301.871094 181.632812 301.609375 181.632812 301.339844 L 181.632812 301.273438 C 181.667969 300.167969 181.871094 299.09375 182.246094 298.050781 C 183.355469 294.921875 186.871094 293.824219 189.976562 292.855469 C 190.917969 292.558594 191.832031 292.265625 192.636719 291.9375 C 197.488281 289.925781 205.207031 284.929688 207.1875 280.121094 L 207.3125 279.8125 L 203.183594 279.8125 C 203.089844 279.808594 203.03125 279.765625 203 279.675781 L 184.546875 214.953125 C 182.21875 205.351562 185.707031 198.21875 194.636719 194.328125 L 195.09375 194.128906 L 194.644531 193.917969 C 193.773438 193.519531 193.007812 192.976562 192.339844 192.285156 C 190.609375 190.472656 189.917969 187.871094 190.386719 184.953125 L 197.238281 142.582031 C 198.414062 135.386719 204.957031 127.808594 211.824219 125.683594 L 216.835938 124.132812 L 216.683594 123.882812 C 215.28125 121.621094 214.132812 119.234375 213.238281 116.726562 L 213.1875 116.582031 L 213.03125 116.578125 C 212.644531 116.570312 212.300781 116.445312 212 116.199219 C 211.703125 115.949219 211.511719 115.636719 211.433594 115.257812 L 210.4375 110.34375 C 210.34375 109.894531 210.425781 109.484375 210.683594 109.105469 C 210.710938 109.066406 210.742188 109.03125 210.773438 108.996094 L 210.867188 108.90625 L 210.832031 108.78125 C 210.804688 108.671875 210.78125 108.5625 210.757812 108.453125 C 210.730469 108.339844 210.707031 108.226562 210.675781 108.109375 L 210.589844 107.785156 L 210.320312 107.988281 C 210.195312 108.089844 210.054688 108.171875 209.902344 108.230469 C 209.734375 108.296875 209.5625 108.332031 209.382812 108.332031 C 208.46875 108.332031 207.785156 107.28125 207.535156 106.304688 C 207.480469 106.074219 207.429688 105.839844 207.390625 105.59375 L 207.300781 105.050781 L 206.984375 105.503906 C 206.386719 106.359375 205.621094 106.851562 204.875 106.851562 C 204.738281 106.851562 204.601562 106.835938 204.46875 106.804688 C 204.128906 106.742188 203.839844 106.578125 203.609375 106.320312 C 203.375 106.0625 203.246094 105.761719 203.21875 105.414062 C 203.210938 104.84375 203.597656 104.390625 204.011719 103.910156 C 204.210938 103.683594 204.394531 103.449219 204.558594 103.199219 C 205.347656 101.949219 205.679688 100.488281 205.996094 99.074219 C 206.050781 98.832031 206.105469 98.59375 206.160156 98.359375 C 206.507812 96.679688 207.152344 95.128906 208.097656 93.703125 C 209.878906 91.160156 212.117188 89.125 214.8125 87.597656 C 217.675781 85.921875 220.769531 85.058594 224.085938 85.003906 C 226.042969 84.988281 227.925781 85.367188 229.726562 86.140625 L 229.9375 86.234375 L 230.023438 86.019531 C 230.40625 85.046875 230.949219 84.179688 231.65625 83.410156 C 232.363281 82.640625 233.183594 82.023438 234.117188 81.5625 C 235.339844 80.957031 236.632812 80.652344 238 80.65625 C 238.707031 80.652344 239.40625 80.742188 240.089844 80.921875 C 241.109375 81.214844 242.039062 81.675781 242.882812 82.3125 C 243.070312 82.449219 243.253906 82.585938 243.4375 82.726562 C 244.042969 83.222656 244.695312 83.648438 245.390625 84.007812 C 245.855469 84.234375 246.351562 84.347656 246.871094 84.355469 L 246.96875 84.351562 C 247.238281 84.339844 247.503906 84.308594 247.769531 84.257812 C 248.035156 84.203125 248.300781 84.175781 248.574219 84.167969 C 248.613281 84.167969 248.65625 84.167969 248.695312 84.171875 C 249.394531 84.21875 250.148438 84.648438 250.148438 85.480469 C 250.175781 85.921875 250.035156 86.304688 249.726562 86.625 C 249.28125 87.074219 248.476562 87.300781 247.332031 87.300781 L 246.761719 87.300781 L 247.179688 87.691406 C 248.351562 88.898438 249.769531 89.609375 251.4375 89.820312 C 251.589844 89.835938 251.742188 89.839844 251.894531 89.839844 C 252.195312 89.839844 252.503906 89.820312 252.804688 89.800781 C 253.101562 89.777344 253.40625 89.757812 253.703125 89.757812 C 254.175781 89.738281 254.632812 89.824219 255.070312 90.007812 C 255.449219 90.171875 255.679688 90.457031 255.769531 90.859375 C 255.867188 91.375 255.746094 91.835938 255.40625 92.238281 C 254.738281 93.042969 253.597656 93.453125 251.917969 93.484375 L 251.753906 93.484375 C 251.375 93.484375 251 93.460938 250.625 93.417969 L 250.488281 93.835938 C 251.738281 94.492188 252.933594 95.230469 254.074219 96.050781 C 255.640625 97.15625 256.804688 98.585938 257.574219 100.339844 C 258.167969 101.789062 258.734375 104.472656 257.113281 105.34375 C 256.972656 105.425781 256.820312 105.476562 256.65625 105.496094 C 256.492188 105.515625 256.332031 105.503906 256.175781 105.457031 C 256.019531 105.410156 255.878906 105.332031 255.75 105.226562 C 255.625 105.125 255.527344 104.996094 255.453125 104.851562 C 255.296875 104.570312 255.164062 104.273438 255.058594 103.96875 L 254.992188 103.792969 C 254.835938 103.40625 254.652344 103.03125 254.4375 102.671875 L 254.03125 102.851562 L 254.070312 102.960938 C 254.09375 103.015625 254.109375 103.070312 254.125 103.128906 C 254.296875 104.015625 254.378906 104.914062 254.367188 105.816406 C 254.375 106.101562 254.382812 106.386719 254.394531 106.667969 C 254.402344 107.277344 254.472656 107.875 254.605469 108.46875 C 254.730469 108.914062 254.894531 109.34375 255.101562 109.757812 C 255.148438 109.863281 255.199219 109.972656 255.25 110.082031 C 255.625 110.90625 255.96875 111.953125 255.300781 112.738281 C 254.960938 113.132812 254.53125 113.328125 254.011719 113.324219 C 253.675781 113.324219 253.371094 113.234375 253.089844 113.058594 C 252.339844 112.574219 251.960938 111.625 251.714844 110.851562 C 251.464844 109.988281 251.277344 109.109375 251.152344 108.21875 L 251.089844 107.855469 C 250.972656 106.980469 250.761719 106.125 250.464844 105.292969 L 250.039062 105.429688 C 250.246094 106.253906 250.363281 107.09375 250.398438 107.945312 C 250.445312 109.285156 250.414062 110.984375 249.738281 112.238281 C 249.394531 112.871094 248.679688 113.976562 247.734375 114.285156 C 247.601562 114.328125 247.460938 114.351562 247.316406 114.347656 C 246.765625 114.34375 246.328125 114.113281 246.011719 113.660156 C 245.238281 112.503906 245.644531 110.679688 245.9375 109.34375 L 246.003906 109.054688 C 246.207031 108.355469 246.257812 107.644531 246.152344 106.921875 C 245.984375 105.976562 245.535156 105.191406 244.800781 104.570312 C 244.507812 104.300781 244.199219 104.050781 243.898438 103.804688 C 243.503906 103.496094 243.128906 103.164062 242.769531 102.8125 C 242.605469 102.644531 242.453125 102.464844 242.308594 102.273438 L 241.855469 101.671875 L 241.90625 102.421875 C 241.929688 102.804688 241.957031 103.1875 241.988281 103.5625 L 242.003906 103.714844 L 242.148438 103.757812 C 242.613281 103.878906 242.945312 104.15625 243.152344 104.589844 C 243.515625 105.515625 243.636719 106.476562 243.511719 107.464844 C 243.460938 108.261719 243.265625 109.023438 242.925781 109.746094 C 242.585938 110.46875 242.125 111.109375 241.546875 111.660156 L 241.445312 111.753906 L 241.484375 111.886719 C 242.203125 114.363281 243.0625 116.792969 244.0625 119.171875 L 244.109375 119.273438 L 265.089844 124.15625 C 272.804688 126.1875 278.875 132.285156 281.324219 140.464844 L 287.226562 160.1875 L 293.546875 181.300781 C 294.753906 185.335938 294.171875 189.355469 291.996094 192.058594 Z M 175.773438 209.175781 C 176.011719 211.253906 175.875 213.304688 175.355469 215.332031 C 174.839844 217.359375 173.976562 219.226562 172.769531 220.933594 L 145.152344 261.347656 L 145.265625 261.480469 C 145.992188 262.355469 146.464844 263.351562 146.683594 264.46875 C 147.183594 266.871094 146.773438 269.386719 145.609375 271.039062 C 145.335938 271.421875 145.015625 271.757812 144.644531 272.042969 L 144.582031 272.09375 L 144.550781 272.105469 L 144.527344 272.121094 C 143.996094 272.5 143.402344 272.691406 142.746094 272.695312 C 141.34375 272.6875 140.058594 272 138.816406 271.335938 L 138.453125 271.140625 L 133.839844 277.902344 L 133.851562 277.992188 C 133.953125 278.613281 134.082031 279.230469 134.246094 279.839844 C 135.109375 282.824219 136.398438 285.609375 138.109375 288.203125 C 139.773438 290.828125 141.695312 293.242188 143.882812 295.449219 C 144.960938 296.542969 146.070312 297.667969 146.417969 299.136719 C 146.582031 299.773438 146.574219 300.402344 146.390625 301.03125 C 146.207031 301.660156 145.875 302.195312 145.390625 302.640625 C 143.507812 304.335938 140.433594 304.4375 137.960938 304.515625 L 137.796875 304.523438 C 137.355469 304.539062 136.910156 304.546875 136.464844 304.546875 C 133.9375 304.601562 131.476562 304.230469 129.078125 303.433594 C 127.769531 302.96875 126.558594 302.320312 125.453125 301.476562 C 124.34375 300.582031 123.386719 299.546875 122.582031 298.367188 C 122.117188 297.726562 121.671875 297.058594 121.242188 296.40625 C 120.878906 295.859375 120.5 295.289062 120.113281 294.738281 C 119.257812 293.539062 118.277344 292.457031 117.167969 291.484375 C 116.921875 291.265625 116.664062 291.042969 116.402344 290.816406 C 114.667969 289.316406 112.871094 287.765625 112.425781 285.535156 C 112.191406 283.996094 112.441406 282.542969 113.179688 281.167969 L 113.214844 281.097656 L 113.195312 281.023438 C 113.164062 280.921875 113.199219 280.851562 113.300781 280.820312 L 113.375 280.789062 L 113.410156 280.71875 C 113.617188 280.3125 113.851562 279.917969 114.109375 279.539062 C 115.773438 277.160156 117.820312 275.171875 120.246094 273.574219 L 120.296875 273.539062 L 124.511719 264.582031 L 121.558594 262.882812 C 120.089844 262.035156 118.617188 261.1875 117.140625 260.34375 C 116.730469 260.105469 116.308594 259.875 115.886719 259.636719 C 114.25 258.8125 112.730469 257.804688 111.332031 256.621094 C 110.988281 256.359375 110.78125 256.019531 110.714844 255.59375 C 110.710938 255.167969 110.777344 254.753906 110.914062 254.351562 C 110.945312 254.234375 110.984375 254.125 111.023438 254.015625 C 111.046875 253.945312 111.070312 253.875 111.09375 253.804688 C 111.097656 253.761719 111.105469 253.722656 111.121094 253.679688 L 111.148438 253.652344 L 111.167969 253.605469 C 111.363281 253.046875 111.601562 252.507812 111.875 251.984375 C 113.519531 248.890625 116.367188 245.992188 119.898438 243.816406 L 119.929688 243.796875 L 128.980469 232.507812 L 128.335938 232.667969 C 125.488281 233.378906 122.410156 234.070312 119.1875 234.722656 C 116.492188 235.277344 113.769531 235.625 111.019531 235.769531 L 110.980469 235.773438 L 110.882812 235.8125 C 110.890625 235.808594 110.875 235.800781 110.855469 235.792969 L 110.8125 235.777344 L 110.367188 235.792969 C 109.863281 235.816406 109.347656 235.835938 108.859375 235.835938 C 95.992188 235.835938 87.113281 229.867188 83.867188 219.023438 C 80.246094 206.976562 88.574219 195.007812 90.277344 192.734375 L 90.445312 192.511719 L 90.191406 192.394531 C 89.511719 192.074219 88.867188 191.6875 88.265625 191.238281 C 87.664062 190.785156 87.113281 190.277344 86.613281 189.714844 C 86.117188 189.148438 85.679688 188.539062 85.304688 187.886719 C 84.933594 187.230469 84.628906 186.546875 84.398438 185.828125 C 84.164062 185.113281 84.007812 184.378906 83.925781 183.632812 C 83.84375 182.882812 83.839844 182.132812 83.910156 181.382812 C 83.980469 180.632812 84.128906 179.898438 84.351562 179.179688 C 84.574219 178.460938 84.867188 177.769531 85.230469 177.109375 L 104.101562 142.902344 L 104.101562 142.847656 L 104.109375 142.835938 L 104.128906 142.78125 C 104.140625 142.761719 104.15625 142.746094 104.175781 142.730469 L 104.210938 142.703125 L 107.910156 135.992188 C 108.632812 134.761719 109.460938 133.609375 110.402344 132.535156 L 110.585938 132.328125 L 110.34375 132.191406 C 108.335938 131.078125 107.167969 129.402344 107.050781 127.46875 C 107.042969 126.519531 107.191406 125.59375 107.503906 124.691406 C 107.816406 123.792969 108.273438 122.972656 108.871094 122.234375 C 108.988281 122.078125 109.121094 121.929688 109.253906 121.78125 C 109.589844 121.460938 109.847656 121.082031 110.023438 120.652344 C 110.183594 120.046875 110.21875 119.429688 110.121094 118.808594 L 110.101562 118.558594 C 109.949219 117.355469 110.152344 116.214844 110.703125 115.136719 C 111.261719 114.136719 112.066406 113.417969 113.125 112.980469 C 113.28125 112.914062 113.441406 112.847656 113.601562 112.785156 C 114.621094 112.375 115.675781 111.953125 115.988281 110.648438 C 116.148438 109.785156 116.175781 108.917969 116.0625 108.046875 C 116.035156 107.695312 116.007812 107.351562 116.003906 107.011719 C 115.941406 105.859375 116.203125 104.78125 116.78125 103.785156 C 117.398438 102.8125 118.195312 102.019531 119.167969 101.402344 C 119.628906 101.117188 120.105469 100.863281 120.597656 100.640625 C 121.351562 100.320312 122.046875 99.90625 122.6875 99.394531 C 124.09375 98.148438 124.660156 96.328125 125.207031 94.570312 C 125.390625 93.992188 125.558594 93.445312 125.757812 92.917969 C 125.964844 92.351562 126.210938 91.804688 126.503906 91.28125 C 126.792969 90.753906 127.125 90.253906 127.492188 89.777344 C 127.859375 89.300781 128.261719 88.859375 128.699219 88.445312 C 129.136719 88.03125 129.601562 87.65625 130.097656 87.3125 C 130.59375 86.972656 131.113281 86.671875 131.65625 86.410156 C 132.195312 86.152344 132.757812 85.933594 133.332031 85.761719 C 133.90625 85.585938 134.492188 85.457031 135.089844 85.375 C 135.683594 85.292969 136.28125 85.253906 136.882812 85.265625 C 139.617188 85.285156 142.144531 86.019531 144.460938 87.46875 C 144.507812 87.488281 144.53125 87.523438 144.542969 87.570312 L 144.589844 87.867188 L 144.863281 87.738281 C 147.679688 86.398438 150.644531 85.730469 153.761719 85.738281 L 153.796875 85.738281 L 153.828125 85.726562 C 153.84375 85.722656 153.863281 85.71875 153.882812 85.71875 L 153.917969 85.730469 L 153.984375 85.738281 C 154.847656 85.742188 155.703125 85.804688 156.558594 85.917969 C 159.429688 86.300781 163.402344 87.402344 166.023438 90.464844 C 168.8125 93.738281 170.101562 97.898438 170.6875 100.828125 L 170.679688 100.871094 L 170.699219 100.925781 C 170.734375 101.003906 170.710938 101.058594 170.628906 101.085938 C 169.601562 101.605469 168.535156 102.035156 167.433594 102.375 L 167.257812 102.433594 L 167.277344 102.617188 C 167.664062 106.28125 167.640625 109.941406 167.210938 113.597656 C 167.183594 113.878906 167.152344 114.152344 167.117188 114.429688 L 167.050781 114.972656 L 167.113281 115.046875 C 167.144531 115.082031 167.164062 115.117188 167.179688 115.15625 C 167.363281 115.859375 167.597656 116.585938 167.824219 117.285156 C 168.382812 119.03125 168.960938 120.839844 168.910156 122.679688 C 168.859375 123.53125 168.722656 124.371094 168.496094 125.191406 C 168.445312 125.402344 168.398438 125.609375 168.351562 125.820312 C 168.207031 126.457031 168.078125 127.097656 167.945312 127.738281 C 167.8125 128.390625 167.679688 129.046875 167.53125 129.695312 L 167.519531 129.746094 L 174.648438 162.035156 C 174.71875 162.378906 174.800781 162.722656 174.878906 163.066406 L 174.972656 163.472656 C 175.804688 167.089844 176.664062 170.832031 175.664062 174.632812 C 175.269531 176.203125 174.59375 177.632812 173.628906 178.929688 L 173.382812 179.253906 L 173.789062 179.289062 C 174.835938 179.390625 175.855469 179.621094 176.847656 179.976562 C 177.839844 180.328125 178.773438 180.796875 179.648438 181.382812 C 180.523438 181.96875 181.316406 182.648438 182.023438 183.429688 C 182.730469 184.210938 183.332031 185.0625 183.828125 185.992188 C 184.359375 186.957031 184.753906 187.976562 185.011719 189.046875 C 185.265625 190.121094 185.378906 191.207031 185.34375 192.308594 C 185.308594 193.410156 185.128906 194.484375 184.804688 195.539062 C 184.476562 196.59375 184.019531 197.582031 183.429688 198.511719 L 175.761719 209.085938 Z M 156.628906 184.292969 C 156.664062 183.34375 156.53125 182.414062 156.238281 181.507812 C 155.65625 179.652344 154.609375 177.980469 153.601562 176.363281 C 153.402344 176.046875 153.203125 175.726562 153.007812 175.410156 C 152.183594 174.058594 151.285156 172.742188 150.261719 171.382812 L 150.074219 171.132812 L 149.898438 171.390625 C 147.644531 174.601562 145.09375 177.558594 142.25 180.261719 L 142.21875 180.289062 L 136.867188 190.832031 L 136.714844 191.183594 L 137.109375 191.152344 C 137.785156 191.105469 138.464844 191.054688 139.140625 191.023438 L 139.4375 191.007812 L 139.394531 190.882812 L 156.625 184.445312 Z M 163.808594 181.753906 L 163.339844 181.523438 C 162.296875 181.011719 161.390625 180.316406 160.617188 179.445312 C 158.574219 177.148438 157.167969 174.511719 156.398438 171.539062 L 153.929688 163.050781 L 153.492188 163.078125 L 153.34375 163.953125 C 152.992188 165.90625 152 168.15625 150.402344 170.640625 L 150.308594 170.78125 L 150.417969 170.910156 C 150.464844 170.964844 150.511719 171.019531 150.558594 171.082031 C 152.097656 173.160156 153.503906 175.320312 154.78125 177.566406 C 155.851562 179.367188 156.960938 181.519531 157.042969 183.832031 L 157.039062 183.875 C 157.039062 183.90625 157.035156 183.9375 157.035156 183.964844 L 157.035156 184.285156 Z M 163.808594 181.753906 " fill-opacity="1" fill-rule="nonzero"/></g><path fill="#a6a6a6" d="M 199.648438 298.050781 C 199.3125 298.976562 199.109375 299.925781 199.039062 300.90625 L 199.027344 301.117188 L 182.019531 301.117188 L 182.035156 300.878906 C 182.105469 299.949219 182.296875 299.050781 182.613281 298.175781 C 183.65625 295.222656 187.070312 294.15625 190.082031 293.214844 C 191.003906 292.921875 191.957031 292.625 192.78125 292.285156 C 196.78125 290.632812 205.679688 285.445312 207.652344 279.960938 L 207.707031 279.8125 L 224.257812 279.8125 L 224.058594 280.148438 C 221.074219 285.230469 214.695312 290.132812 210.253906 291.9375 C 209.523438 292.230469 208.699219 292.488281 207.828125 292.761719 L 207.527344 292.855469 C 204.363281 293.824219 200.78125 294.921875 199.648438 298.050781 Z M 242.9375 279.8125 L 224.695312 279.8125 L 224.632812 279.925781 C 221.738281 285.160156 214.988281 290.421875 210.390625 292.292969 C 209.625 292.601562 208.765625 292.867188 207.859375 293.144531 L 207.617188 293.222656 C 204.546875 294.167969 201.070312 295.242188 200.003906 298.175781 C 199.6875 299.046875 199.492188 299.949219 199.421875 300.878906 L 199.40625 301.117188 L 245.953125 301.117188 L 245.957031 300.898438 C 246.035156 297.148438 245.894531 287.605469 242.992188 279.957031 Z M 204.867188 159.972656 C 204.800781 159.742188 204.792969 159.515625 204.839844 159.28125 C 204.882812 159.050781 204.976562 158.839844 205.121094 158.652344 C 205.261719 158.460938 205.441406 158.316406 205.652344 158.210938 C 205.863281 158.105469 206.085938 158.050781 206.324219 158.050781 L 215.035156 158.050781 L 214.96875 157.777344 C 213.863281 153.082031 213.007812 148.605469 212.429688 144.480469 C 212.421875 144.335938 212.488281 144.261719 212.632812 144.257812 C 212.738281 144.261719 212.792969 144.316406 212.804688 144.417969 C 213.398438 148.617188 214.265625 153.144531 215.386719 157.878906 L 215.425781 158.050781 L 231.109375 158.050781 L 231.484375 158.039062 L 231.3125 157.730469 L 228.886719 140.101562 L 218.804688 149.191406 C 218.761719 149.226562 218.714844 149.242188 218.660156 149.242188 C 218.640625 149.242188 218.617188 149.242188 218.613281 149.246094 C 218.546875 149.222656 218.503906 149.179688 218.480469 149.113281 L 211.683594 126.140625 L 211.460938 126.21875 C 204.929688 128.503906 198.714844 135.871094 197.609375 142.644531 L 193.769531 166.414062 L 207.476562 169.328125 Z M 228.789062 139.679688 L 223.230469 129.578125 L 223.128906 129.558594 C 222.597656 129.46875 222.078125 129.328125 221.574219 129.136719 C 219.675781 128.414062 218.335938 126.503906 217.128906 124.613281 L 217.035156 124.46875 L 212.035156 126.015625 L 218.753906 148.710938 Z M 254.609375 122.429688 C 254.613281 122.410156 254.621094 122.394531 254.625 122.378906 L 254.722656 122.136719 L 246.273438 120.171875 L 241.757812 139.128906 L 254.273438 144.171875 Z M 257.375 179.921875 L 269.988281 178.148438 L 259.882812 150.910156 C 259.863281 150.863281 259.863281 150.8125 259.886719 150.765625 C 259.90625 150.71875 259.941406 150.6875 259.992188 150.671875 C 260.015625 150.664062 260.039062 150.65625 260.0625 150.65625 C 260.148438 150.65625 260.203125 150.699219 260.230469 150.78125 L 266.007812 166.324219 L 286.808594 160.109375 L 280.960938 140.578125 C 278.550781 132.527344 272.585938 126.523438 264.992188 124.523438 L 254.992188 122.195312 L 254.648438 144.453125 C 254.648438 144.523438 254.621094 144.578125 254.558594 144.613281 C 254.527344 144.628906 254.496094 144.636719 254.460938 144.636719 C 254.4375 144.636719 254.414062 144.632812 254.394531 144.628906 L 241.796875 139.558594 L 249.265625 177.027344 L 249.429688 177.042969 C 252.28125 177.363281 254.90625 178.308594 257.304688 179.875 Z M 274.757812 194.605469 L 255.042969 192.355469 C 253.894531 192.375 252.742188 192.390625 251.601562 192.390625 L 251.304688 192.390625 L 251.441406 192.878906 C 251.578125 193.363281 251.492188 193.804688 251.1875 194.203125 C 251.101562 194.316406 250.996094 194.414062 250.878906 194.5 L 250.597656 194.707031 L 250.90625 194.875 C 255.007812 197.113281 268.449219 205.933594 269.132812 225.542969 L 269.148438 225.945312 L 269.484375 225.722656 C 271.519531 224.335938 273.15625 222.574219 274.398438 220.445312 C 279.148438 212.421875 277.265625 202.953125 274.800781 194.746094 Z M 123.179688 247.035156 C 123.929688 247.625 125.058594 248.519531 126.222656 248.519531 C 126.449219 248.519531 126.675781 248.484375 126.890625 248.414062 C 127.148438 248.332031 127.386719 248.238281 127.621094 248.148438 C 128.128906 247.914062 128.660156 247.78125 129.214844 247.75 C 129.367188 247.75 129.519531 247.761719 129.667969 247.789062 C 130.417969 247.929688 131.121094 248.191406 131.78125 248.574219 L 131.992188 248.703125 L 138.945312 233.933594 L 133.609375 231.296875 L 133.527344 231.320312 C 132.417969 231.625 131.15625 231.960938 129.667969 232.335938 L 129.597656 232.355469 L 120.230469 244.019531 L 120.339844 244.160156 C 121.167969 245.234375 122.113281 246.195312 123.179688 247.035156 Z M 120.683594 273.597656 L 120.726562 273.691406 C 121.144531 274.601562 121.84375 275.835938 123.121094 276.070312 C 123.34375 276.113281 123.566406 276.132812 123.796875 276.132812 C 124.453125 276.105469 125.101562 276.007812 125.742188 275.835938 C 126.109375 275.75 126.460938 275.667969 126.808594 275.617188 C 127.15625 275.566406 127.507812 275.539062 127.863281 275.539062 C 129.574219 275.539062 131.335938 276.15625 133.398438 277.480469 L 133.582031 277.601562 L 143.203125 263.527344 L 129.402344 255.09375 Z M 156.226562 129.085938 L 156.03125 128.582031 L 155.886719 128.578125 C 155.171875 128.542969 154.464844 128.457031 153.765625 128.316406 L 153.5 128.265625 L 153.496094 128.476562 C 153.410156 128.605469 153.320312 128.734375 153.234375 128.863281 C 153.136719 129.003906 153.039062 129.144531 152.941406 129.285156 L 152.730469 129.582031 L 156.65625 130.175781 L 156.507812 129.808594 C 156.40625 129.566406 156.316406 129.328125 156.226562 129.085938 Z M 134.597656 125.03125 L 134.664062 124.957031 C 136.832031 122.5625 138.734375 119.972656 140.367188 117.1875 L 140.472656 117.003906 L 140.296875 116.886719 C 139.386719 116.300781 138.601562 115.582031 137.941406 114.726562 C 137.320312 113.953125 136.917969 113.078125 136.722656 112.109375 C 136.53125 110.957031 136.644531 110.132812 137.042969 109.675781 L 137.078125 109.648438 L 137.191406 109.535156 L 137.144531 109.40625 C 135.140625 103.46875 135.492188 97.871094 138.144531 93.636719 C 139.652344 91.265625 141.652344 89.421875 144.140625 88.113281 L 144.484375 87.925781 L 144.152344 87.722656 C 141.925781 86.34375 139.507812 85.644531 136.890625 85.625 C 136.417969 85.625 135.945312 85.648438 135.476562 85.703125 C 134.101562 85.855469 132.800781 86.246094 131.574219 86.875 C 130.34375 87.503906 129.265625 88.332031 128.339844 89.355469 C 127.539062 90.234375 126.898438 91.21875 126.410156 92.308594 C 126.082031 93.085938 125.796875 93.878906 125.554688 94.6875 C 125.460938 94.980469 125.367188 95.273438 125.269531 95.566406 C 124.953125 96.613281 124.507812 97.601562 123.925781 98.53125 C 123.277344 99.476562 122.425781 100.1875 121.378906 100.65625 C 119.25 101.710938 116.9375 103.054688 116.460938 105.675781 C 116.351562 106.484375 116.347656 107.296875 116.441406 108.109375 C 116.550781 109.527344 116.648438 110.867188 115.785156 111.929688 C 115.261719 112.480469 114.632812 112.859375 113.902344 113.066406 C 113.539062 113.199219 113.183594 113.355469 112.835938 113.53125 C 112.28125 113.835938 111.808594 114.238281 111.417969 114.738281 C 111.03125 115.242188 110.757812 115.796875 110.597656 116.414062 C 110.441406 117.136719 110.410156 117.863281 110.5 118.597656 C 110.550781 119.132812 110.550781 119.667969 110.5 120.203125 C 110.367188 120.90625 110.046875 121.503906 109.539062 122 C 109.351562 122.226562 109.160156 122.457031 108.980469 122.714844 C 107.925781 124.132812 107.410156 125.726562 107.433594 127.496094 C 107.570312 129.828125 109.289062 131.214844 110.710938 131.964844 L 110.859375 132.046875 L 110.976562 131.921875 C 112.007812 130.839844 113.136719 129.867188 114.363281 129.011719 C 115.59375 128.15625 116.890625 127.433594 118.265625 126.839844 C 119.640625 126.25 121.058594 125.800781 122.523438 125.496094 C 123.988281 125.191406 125.46875 125.035156 126.964844 125.03125 Z M 164.90625 89.832031 C 161.984375 87.03125 157.617188 86.328125 155.269531 86.160156 C 154.820312 86.125 154.367188 86.117188 153.925781 86.109375 L 153.878906 86.109375 L 153.835938 86.125 C 151.609375 87.007812 149.574219 88.222656 147.742188 89.765625 C 146.347656 90.972656 145.148438 92.355469 144.152344 93.90625 C 143.152344 95.457031 142.394531 97.117188 141.871094 98.890625 C 140.847656 102.488281 140.628906 106.136719 141.21875 109.835938 L 141.214844 109.871094 L 141.214844 110.027344 L 141.351562 110.085938 C 142.011719 110.378906 142.703125 110.519531 143.425781 110.519531 C 144.601562 110.535156 145.644531 110.175781 146.554688 109.441406 C 147.304688 108.765625 147.871094 107.960938 148.253906 107.03125 C 148.640625 106.097656 148.804688 105.128906 148.75 104.125 C 148.746094 104.066406 148.765625 104.019531 148.8125 103.980469 L 148.855469 103.957031 C 148.882812 103.941406 148.917969 103.9375 148.949219 103.933594 C 149.921875 103.894531 150.894531 103.859375 151.867188 103.828125 C 154.601562 103.734375 157.429688 103.636719 160.199219 103.359375 C 163.054688 103.074219 166.769531 102.53125 170.136719 100.902344 L 170.292969 100.828125 L 170.257812 100.65625 C 169.574219 97.410156 168.09375 92.902344 164.90625 89.832031 Z M 164.90625 89.832031 " fill-opacity="1" fill-rule="nonzero"/><g clip-path="url(#c3cb8984e8)"><path fill="#000000" d="M 293.761719 181.238281 L 287.441406 160.125 L 281.539062 140.402344 C 279.070312 132.148438 272.945312 125.992188 265.140625 123.9375 L 244.265625 119.082031 C 243.273438 116.710938 242.414062 114.289062 241.699219 111.820312 C 242.300781 111.253906 242.777344 110.59375 243.128906 109.84375 C 243.480469 109.09375 243.683594 108.304688 243.738281 107.480469 C 243.859375 106.453125 243.730469 105.460938 243.355469 104.496094 C 243.121094 104.003906 242.742188 103.683594 242.210938 103.542969 C 242.179688 103.171875 242.152344 102.789062 242.128906 102.410156 C 242.277344 102.605469 242.4375 102.792969 242.609375 102.972656 C 243.238281 103.609375 243.984375 104.125 244.648438 104.738281 C 245.339844 105.324219 245.769531 106.0625 245.933594 106.957031 C 246.03125 107.675781 245.976562 108.382812 245.765625 109.078125 C 245.460938 110.480469 244.953125 112.484375 245.824219 113.785156 C 246.042969 114.105469 246.335938 114.328125 246.699219 114.460938 C 247.066406 114.59375 247.433594 114.605469 247.804688 114.5 C 248.75 114.191406 249.488281 113.171875 249.933594 112.34375 C 250.621094 111.066406 250.671875 109.351562 250.621094 107.933594 C 250.589844 107.070312 250.46875 106.214844 250.257812 105.375 C 250.574219 106.292969 250.796875 107.230469 250.921875 108.191406 C 251.046875 109.113281 251.242188 110.023438 251.5 110.917969 C 251.773438 111.78125 252.171875 112.734375 252.96875 113.246094 C 253.164062 113.371094 253.375 113.457031 253.601562 113.503906 C 253.828125 113.554688 254.058594 113.5625 254.285156 113.527344 C 254.515625 113.496094 254.734375 113.421875 254.9375 113.3125 C 255.140625 113.199219 255.316406 113.058594 255.46875 112.882812 C 256.207031 112.019531 255.875 110.917969 255.453125 109.992188 C 255.199219 109.484375 254.988281 108.960938 254.824219 108.417969 C 254.695312 107.835938 254.628906 107.25 254.617188 106.660156 C 254.636719 105.457031 254.546875 104.265625 254.34375 103.078125 C 254.316406 102.980469 254.28125 102.878906 254.242188 102.78125 C 254.449219 103.132812 254.628906 103.496094 254.78125 103.875 C 254.910156 104.253906 255.070312 104.617188 255.261719 104.96875 C 255.351562 105.140625 255.472656 105.285156 255.621094 105.40625 C 255.769531 105.527344 255.933594 105.617188 256.121094 105.671875 C 256.304688 105.722656 256.492188 105.738281 256.683594 105.71875 C 256.875 105.695312 257.050781 105.636719 257.21875 105.539062 C 259.007812 104.578125 258.394531 101.753906 257.78125 100.253906 C 256.996094 98.464844 255.804688 97.003906 254.210938 95.871094 C 253.058594 95.042969 251.855469 94.300781 250.597656 93.640625 C 251.039062 93.691406 251.480469 93.714844 251.925781 93.707031 C 253.226562 93.683594 254.699219 93.441406 255.578125 92.382812 C 256.257812 91.5625 256.199219 90.285156 255.164062 89.804688 C 254.019531 89.273438 252.652344 89.707031 251.460938 89.597656 C 249.769531 89.441406 248.5 88.613281 247.332031 87.527344 C 248.757812 87.527344 250.382812 87.179688 250.375 85.480469 C 250.375 84.542969 249.570312 84.003906 248.707031 83.945312 C 248.121094 83.914062 247.546875 84.113281 246.960938 84.128906 C 246.441406 84.136719 245.953125 84.03125 245.484375 83.804688 C 244.609375 83.324219 243.789062 82.765625 243.015625 82.132812 C 242.378906 81.644531 241.691406 81.257812 240.945312 80.96875 C 240.199219 80.679688 239.425781 80.5 238.628906 80.433594 C 237.832031 80.367188 237.042969 80.410156 236.257812 80.566406 C 235.472656 80.726562 234.726562 80.988281 234.015625 81.359375 C 233.058594 81.839844 232.21875 82.472656 231.492188 83.257812 C 230.769531 84.046875 230.210938 84.941406 229.816406 85.933594 C 224.976562 83.820312 219.277344 84.773438 214.703125 87.402344 C 211.972656 88.949219 209.710938 91.003906 207.914062 93.574219 C 206.953125 95.027344 206.296875 96.601562 205.941406 98.308594 C 205.5625 99.921875 205.269531 101.65625 204.367188 103.078125 C 203.902344 103.824219 202.984375 104.464844 202.992188 105.417969 C 203.023438 105.816406 203.167969 106.164062 203.433594 106.460938 C 203.699219 106.761719 204.027344 106.949219 204.417969 107.023438 C 205.535156 107.28125 206.523438 106.558594 207.167969 105.632812 C 207.210938 105.878906 207.261719 106.121094 207.316406 106.359375 C 207.617188 107.53125 208.570312 108.980469 209.976562 108.441406 C 210.152344 108.375 210.3125 108.285156 210.457031 108.167969 C 210.515625 108.390625 210.558594 108.613281 210.617188 108.839844 C 210.574219 108.882812 210.535156 108.929688 210.5 108.980469 C 210.207031 109.410156 210.113281 109.878906 210.21875 110.386719 L 211.210938 115.300781 C 211.304688 115.734375 211.519531 116.089844 211.859375 116.371094 C 212.199219 116.648438 212.585938 116.792969 213.027344 116.800781 C 213.925781 119.324219 215.082031 121.726562 216.492188 124.003906 L 211.757812 125.46875 C 204.816406 127.617188 198.203125 135.28125 197.019531 142.546875 L 190.164062 184.917969 C 189.683594 187.898438 190.398438 190.574219 192.179688 192.441406 C 192.863281 193.152344 193.652344 193.710938 194.546875 194.121094 C 185.507812 198.058594 181.960938 205.25 184.332031 215.011719 L 202.785156 279.738281 C 202.84375 279.9375 202.976562 280.035156 203.183594 280.035156 L 206.976562 280.035156 C 205.046875 284.726562 197.367188 289.730469 192.550781 291.726562 C 191.765625 292.050781 190.859375 292.339844 189.910156 292.640625 C 186.75 293.625 183.179688 294.746094 182.035156 297.976562 C 181.652344 299.042969 181.441406 300.140625 181.40625 301.273438 C 181.40625 301.28125 181.398438 301.289062 181.398438 301.308594 C 181.398438 301.316406 181.40625 301.324219 181.40625 301.339844 C 181.40625 301.613281 181.40625 301.878906 181.421875 302.144531 C 181.453125 302.503906 181.550781 302.84375 181.707031 303.164062 C 181.867188 303.488281 182.078125 303.769531 182.34375 304.011719 C 182.605469 304.257812 182.90625 304.441406 183.242188 304.574219 C 183.574219 304.703125 183.921875 304.769531 184.28125 304.769531 L 243.613281 304.769531 C 243.980469 304.777344 244.339844 304.710938 244.683594 304.578125 C 245.03125 304.445312 245.335938 304.253906 245.609375 304.003906 C 245.878906 303.75 246.09375 303.457031 246.25 303.125 C 246.410156 302.789062 246.5 302.4375 246.519531 302.070312 C 246.53125 302.011719 246.539062 301.804688 246.546875 301.472656 C 246.570312 301.421875 246.582031 301.367188 246.578125 301.308594 C 246.578125 301.257812 246.570312 301.210938 246.554688 301.167969 C 246.636719 298.125 246.628906 288.089844 243.664062 280.035156 L 247.117188 280.035156 C 247.238281 280.035156 247.335938 279.992188 247.417969 279.902344 C 247.503906 279.820312 247.542969 279.71875 247.53125 279.597656 L 244.117188 229.109375 C 247.308594 229.023438 250.492188 229 253.671875 228.949219 C 255.164062 228.925781 256.648438 228.910156 258.128906 228.875 C 260.425781 228.816406 262.753906 228.769531 265 228.269531 C 266.441406 227.957031 267.800781 227.425781 269.078125 226.679688 C 269.164062 226.65625 269.242188 226.609375 269.300781 226.539062 C 274.445312 223.40625 277.414062 217.191406 277.894531 211.183594 C 278.332031 205.65625 277.046875 200.179688 275.472656 194.917969 L 282.640625 195.730469 C 283.0625 195.761719 283.480469 195.78125 283.875 195.78125 C 288.316406 195.78125 290.828125 193.875 292.171875 192.199219 C 294.398438 189.433594 294.988281 185.339844 293.761719 181.238281 Z M 254.691406 144.792969 C 254.816406 144.714844 254.875 144.601562 254.875 144.453125 L 255.214844 122.476562 L 264.941406 124.742188 C 272.449219 126.722656 278.359375 132.664062 280.742188 140.640625 L 286.527344 159.957031 L 266.144531 166.046875 L 260.441406 150.703125 C 260.402344 150.597656 260.332031 150.519531 260.226562 150.472656 C 260.125 150.425781 260.019531 150.421875 259.914062 150.460938 C 259.804688 150.503906 259.730469 150.574219 259.683594 150.675781 C 259.636719 150.78125 259.632812 150.886719 259.671875 150.992188 L 269.683594 177.964844 L 257.425781 179.6875 C 254.996094 178.097656 252.339844 177.140625 249.453125 176.820312 L 242.097656 139.921875 L 254.308594 144.835938 C 254.359375 144.851562 254.410156 144.859375 254.460938 144.859375 C 254.542969 144.863281 254.621094 144.839844 254.691406 144.792969 Z M 224.070312 279.207031 L 209.167969 211.414062 C 207.824219 203.957031 210.472656 197.964844 216.285156 195.027344 L 215.746094 195.027344 C 215.355469 195.027344 215.007812 194.90625 214.695312 194.671875 C 214.386719 194.4375 214.175781 194.132812 214.070312 193.757812 L 213.875 193.054688 L 214.671875 192.832031 L 214.871094 193.535156 C 214.925781 193.730469 215.035156 193.890625 215.195312 194.011719 C 215.359375 194.136719 215.542969 194.199219 215.746094 194.199219 L 249.980469 194.199219 C 249.976562 194.199219 249.972656 194.199219 249.96875 194.203125 C 250.027344 194.257812 250.070312 194.324219 250.101562 194.398438 C 250.128906 194.476562 250.136719 194.554688 250.128906 194.636719 C 250.117188 194.71875 250.089844 194.792969 250.042969 194.859375 C 250 194.925781 249.941406 194.980469 249.867188 195.019531 L 249.882812 195.027344 L 218.304688 195.027344 C 218.273438 195.050781 218.242188 195.070312 218.210938 195.085938 C 211.671875 197.523438 208.597656 203.570312 209.980469 211.253906 L 224.917969 279.207031 Z M 244.058594 228.28125 L 243.238281 228.289062 L 243.242188 228.316406 C 243.242188 228.308594 243.238281 228.300781 243.234375 228.289062 L 241.671875 205.144531 C 241.664062 205.03125 241.699219 204.929688 241.773438 204.84375 C 241.851562 204.757812 241.945312 204.710938 242.058594 204.703125 C 242.171875 204.699219 242.273438 204.734375 242.355469 204.808594 C 242.441406 204.882812 242.492188 204.976562 242.5 205.089844 L 244.0625 228.234375 C 244.0625 228.25 244.058594 228.265625 244.058594 228.28125 Z M 242.230469 159.097656 C 242.125 158.722656 241.914062 158.417969 241.605469 158.179688 C 241.292969 157.945312 240.945312 157.828125 240.554688 157.828125 L 231.902344 157.828125 C 231.914062 157.777344 231.917969 157.722656 231.914062 157.671875 L 229.441406 139.664062 C 229.433594 139.648438 229.425781 139.640625 229.425781 139.621094 C 229.417969 139.601562 229.410156 139.578125 229.402344 139.554688 C 229.402344 139.542969 229.398438 139.535156 229.394531 139.523438 L 226.792969 134.800781 C 228.660156 136.003906 230.707031 136.578125 232.929688 136.515625 C 234.140625 136.503906 235.335938 136.371094 236.519531 136.109375 C 237.738281 135.847656 238.882812 135.394531 239.949219 134.753906 C 241.015625 134.109375 241.949219 133.3125 242.75 132.355469 L 241.136719 139.152344 L 241.136719 139.199219 C 241.128906 139.230469 241.128906 139.261719 241.136719 139.292969 L 241.136719 139.324219 L 248.59375 176.746094 C 248.121094 176.722656 247.640625 176.710938 247.160156 176.730469 Z M 254.417969 122.296875 C 254.398438 122.335938 254.386719 122.382812 254.386719 122.429688 L 254.054688 143.839844 L 242.023438 138.992188 L 246.4375 120.441406 Z M 233.429688 105.699219 C 233.328125 105.191406 233.0625 104.796875 232.632812 104.511719 C 232.199219 104.230469 231.730469 104.136719 231.222656 104.238281 L 223.691406 105.757812 C 223.449219 105.804688 223.226562 105.898438 223.019531 106.039062 C 222.8125 106.175781 222.644531 106.351562 222.507812 106.554688 C 222.371094 106.761719 222.277344 106.988281 222.230469 107.230469 C 222.183594 107.472656 222.183594 107.71875 222.234375 107.960938 L 222.546875 109.527344 L 219.953125 110.007812 C 219.90625 109.742188 219.863281 109.476562 219.804688 109.210938 C 219.804688 109.183594 219.792969 109.15625 219.773438 109.136719 L 219.648438 108.484375 C 219.597656 108.238281 219.503906 108.015625 219.367188 107.808594 C 219.226562 107.605469 219.054688 107.433594 218.847656 107.296875 C 218.640625 107.160156 218.417969 107.066406 218.171875 107.019531 C 217.929688 106.972656 217.6875 106.976562 217.445312 107.023438 L 211.683594 108.183594 C 211.566406 108.207031 211.449219 108.242188 211.335938 108.292969 C 211.261719 107.960938 211.1875 107.621094 211.113281 107.289062 C 211.511719 106.34375 211.453125 105.09375 211.535156 104.171875 C 211.585938 103.710938 211.644531 103.253906 211.703125 102.796875 C 211.808594 103.566406 212 104.316406 212.265625 105.042969 C 212.433594 105.648438 212.808594 106.082031 213.382812 106.335938 C 213.660156 106.417969 213.9375 106.425781 214.21875 106.359375 C 214.496094 106.292969 214.742188 106.160156 214.949219 105.964844 C 215.460938 105.46875 215.726562 104.863281 215.746094 104.148438 C 215.894531 102.691406 215.804688 101.214844 215.902344 99.75 C 215.925781 98.425781 216.261719 97.183594 216.90625 96.027344 C 217.234375 97.316406 217.722656 98.542969 218.371094 99.707031 C 219.144531 101.097656 220.144531 102.515625 221.527344 103.351562 C 222.398438 103.882812 224.371094 104.585938 224.894531 103.238281 C 225.125 102.648438 224.8125 102.003906 224.527344 101.496094 C 224.199219 100.890625 223.847656 100.296875 223.5 99.707031 C 223.152344 99.15625 222.882812 98.566406 222.6875 97.941406 C 222.613281 97.664062 222.570312 97.382812 222.558594 97.097656 C 223.34375 99.023438 224.558594 100.621094 226.203125 101.894531 C 227.015625 102.5 228.214844 103.1875 229.234375 102.683594 C 229.472656 102.558594 229.65625 102.382812 229.785156 102.148438 C 229.917969 101.914062 229.96875 101.664062 229.949219 101.398438 C 229.898438 100.734375 229.417969 100.1875 229.078125 99.648438 C 228.699219 99.039062 228.378906 98.402344 228.109375 97.734375 C 228.503906 98.320312 228.933594 98.875 229.402344 99.402344 C 230.6875 100.835938 232.316406 101.945312 233.453125 103.519531 C 234.164062 104.507812 234.699219 105.585938 235.0625 106.75 L 233.695312 107.023438 Z M 232.789062 112.003906 L 225.265625 113.527344 C 224.980469 113.589844 224.71875 113.535156 224.480469 113.371094 C 224.238281 113.21875 224.089844 113 224.039062 112.714844 L 223.046875 107.792969 C 223.019531 107.660156 223.015625 107.523438 223.042969 107.390625 C 223.070312 107.253906 223.121094 107.128906 223.199219 107.011719 C 223.273438 106.898438 223.367188 106.800781 223.484375 106.726562 C 223.597656 106.648438 223.722656 106.59375 223.859375 106.566406 L 231.390625 105.050781 C 231.671875 104.992188 231.929688 105.042969 232.167969 105.199219 C 232.410156 105.359375 232.558594 105.582031 232.617188 105.863281 L 233.609375 110.785156 C 233.636719 110.921875 233.636719 111.054688 233.609375 111.191406 C 233.582031 111.324219 233.527344 111.449219 233.453125 111.5625 C 233.375 111.679688 233.277344 111.773438 233.164062 111.847656 C 233.050781 111.925781 232.925781 111.976562 232.789062 112.003906 Z M 238.355469 106.515625 L 238.355469 106.511719 Z M 212.023438 115.136719 L 211.03125 110.222656 C 211.003906 110.085938 211.003906 109.953125 211.03125 109.816406 C 211.058594 109.679688 211.113281 109.554688 211.1875 109.441406 C 211.265625 109.328125 211.363281 109.230469 211.476562 109.152344 C 211.589844 109.078125 211.714844 109.023438 211.851562 108.996094 L 217.609375 107.835938 C 217.746094 107.808594 217.878906 107.808594 218.015625 107.835938 C 218.152344 107.859375 218.277344 107.910156 218.390625 107.988281 C 218.507812 108.0625 218.601562 108.160156 218.679688 108.273438 C 218.757812 108.386719 218.808594 108.511719 218.835938 108.648438 L 219.132812 110.140625 C 219.390625 111.5 219.589844 112.867188 219.722656 114.242188 C 219.578125 114.542969 219.339844 114.726562 219.011719 114.789062 L 213.25 115.949219 C 213.117188 115.976562 212.980469 115.976562 212.84375 115.949219 C 212.710938 115.921875 212.585938 115.871094 212.46875 115.796875 C 212.355469 115.71875 212.257812 115.625 212.183594 115.511719 C 212.105469 115.394531 212.050781 115.269531 212.023438 115.136719 Z M 213.863281 116.675781 L 219.175781 115.601562 C 219.414062 115.546875 219.636719 115.449219 219.839844 115.308594 C 219.898438 116.171875 219.929688 117.027344 220.003906 117.886719 C 220.078125 118.667969 220.113281 119.609375 220.5 120.316406 C 221.15625 121.484375 222.886719 121.492188 224.039062 121.308594 C 224.699219 121.226562 225.3125 121.003906 225.871094 120.644531 C 226.429688 120.28125 226.886719 119.820312 227.238281 119.253906 C 227.289062 119.15625 227.300781 119.050781 227.269531 118.945312 C 227.242188 118.835938 227.175781 118.753906 227.082031 118.699219 C 226.984375 118.640625 226.882812 118.625 226.773438 118.652344 C 226.664062 118.679688 226.578125 118.738281 226.519531 118.832031 C 226.195312 119.339844 225.773438 119.742188 225.253906 120.042969 C 224.734375 120.34375 224.175781 120.511719 223.574219 120.539062 C 223 120.609375 222.433594 120.5625 221.878906 120.398438 C 221.089844 120.132812 221.015625 119.355469 220.917969 118.625 C 220.710938 117.058594 220.699219 115.460938 220.535156 113.875 C 220.425781 112.859375 220.269531 111.839844 220.105469 110.828125 L 222.714844 110.339844 L 223.226562 112.875 C 223.328125 113.378906 223.59375 113.777344 224.023438 114.066406 C 224.335938 114.273438 224.675781 114.378906 225.050781 114.375 C 225.175781 114.375 225.300781 114.363281 225.425781 114.339844 L 232.957031 112.816406 C 233.199219 112.769531 233.421875 112.675781 233.628906 112.535156 C 233.835938 112.398438 234.007812 112.226562 234.144531 112.023438 C 234.28125 111.816406 234.375 111.589844 234.421875 111.347656 C 234.472656 111.105469 234.472656 110.863281 234.421875 110.621094 L 233.859375 107.835938 L 235.277344 107.554688 C 235.34375 107.820312 235.410156 108.078125 235.449219 108.339844 C 235.574219 109.09375 235.425781 110.03125 235.757812 110.738281 C 235.910156 111.046875 236.148438 111.269531 236.472656 111.398438 C 236.792969 111.53125 237.121094 111.539062 237.449219 111.425781 C 238.285156 111.175781 238.730469 110.339844 238.988281 109.566406 C 239.261719 108.558594 239.324219 107.535156 239.179688 106.503906 C 239.511719 105.492188 240.191406 104.398438 241.351562 104.289062 C 241.613281 104.234375 241.863281 104.261719 242.101562 104.378906 C 242.34375 104.496094 242.523438 104.671875 242.644531 104.910156 C 242.8125 105.367188 242.902344 105.835938 242.917969 106.320312 C 243.039062 108.707031 242.03125 111.21875 239.703125 112.1875 C 239.222656 112.386719 239.429688 113.1875 239.925781 112.980469 C 240.304688 112.816406 240.664062 112.617188 241.003906 112.378906 C 241.71875 114.839844 242.585938 117.253906 243.597656 119.609375 C 243.597656 119.621094 243.605469 119.621094 243.605469 119.628906 C 243.640625 119.691406 243.6875 119.742188 243.746094 119.785156 C 243.753906 119.792969 243.769531 119.792969 243.777344 119.800781 C 243.808594 119.820312 243.84375 119.832031 243.878906 119.84375 L 245.625 120.25 L 243.265625 130.183594 C 242.519531 131.484375 241.546875 132.582031 240.34375 133.472656 C 239.140625 134.363281 237.804688 134.972656 236.34375 135.304688 C 228.597656 136.945312 225.722656 132.746094 225.597656 132.5625 C 225.574219 132.53125 225.546875 132.503906 225.515625 132.480469 L 224.113281 129.925781 C 225.160156 130.027344 226.203125 130.011719 227.246094 129.886719 C 227.820312 130.898438 228.339844 131.941406 228.820312 132.992188 C 228.878906 133.09375 228.960938 133.15625 229.070312 133.1875 C 229.183594 133.214844 229.285156 133.199219 229.386719 133.144531 C 229.480469 133.085938 229.542969 133 229.574219 132.890625 C 229.601562 132.78125 229.589844 132.679688 229.535156 132.578125 C 229.101562 131.625 228.628906 130.691406 228.125 129.769531 C 228.65625 129.6875 229.167969 129.597656 229.675781 129.480469 C 231.042969 129.171875 232.363281 128.734375 233.644531 128.164062 C 234.695312 127.734375 235.578125 127.078125 236.296875 126.199219 C 237.15625 125.023438 237.796875 123.738281 238.226562 122.34375 C 238.808594 120.554688 239.246094 118.730469 239.535156 116.867188 C 239.625 116.355469 238.824219 116.121094 238.730469 116.652344 C 238.269531 119.4375 237.671875 122.410156 236.203125 124.863281 C 235.71875 125.769531 235.03125 126.476562 234.140625 126.984375 C 232.988281 127.597656 231.78125 128.074219 230.519531 128.410156 C 227.984375 129.125 225.125 129.488281 222.546875 128.816406 C 221.625 128.59375 220.828125 128.148438 220.152344 127.484375 C 219.3125 126.640625 218.566406 125.722656 217.917969 124.722656 C 216.238281 122.207031 214.886719 119.527344 213.863281 116.675781 Z M 216.9375 124.730469 C 218.066406 126.496094 219.472656 128.578125 221.496094 129.347656 C 222.011719 129.542969 222.542969 129.683594 223.085938 129.777344 L 228.507812 139.632812 L 218.871094 148.308594 L 212.316406 126.164062 Z M 197.832031 142.679688 C 198.925781 135.976562 205.140625 128.667969 211.535156 126.429688 L 218.265625 149.175781 C 218.308594 149.320312 218.402344 149.414062 218.546875 149.457031 C 218.585938 149.464844 218.625 149.46875 218.664062 149.46875 C 218.769531 149.46875 218.863281 149.433594 218.945312 149.367188 L 228.722656 140.550781 L 231.09375 157.785156 C 231.09375 157.804688 231.101562 157.8125 231.109375 157.828125 L 215.605469 157.828125 C 214.492188 153.136719 213.625 148.621094 213.027344 144.386719 C 213.015625 144.273438 212.960938 144.183594 212.871094 144.113281 C 212.777344 144.046875 212.675781 144.019531 212.5625 144.039062 C 212.453125 144.058594 212.359375 144.109375 212.292969 144.199219 C 212.222656 144.289062 212.195312 144.390625 212.207031 144.503906 C 212.796875 148.703125 213.65625 153.1875 214.75 157.828125 L 206.324219 157.828125 C 206.050781 157.828125 205.792969 157.890625 205.550781 158.007812 C 205.308594 158.128906 205.105469 158.300781 204.941406 158.515625 C 204.777344 158.730469 204.667969 158.972656 204.617188 159.238281 C 204.566406 159.507812 204.578125 159.769531 204.648438 160.03125 L 207.160156 169.03125 L 194.027344 166.238281 Z M 192.785156 191.867188 C 191.183594 190.195312 190.546875 187.773438 190.984375 185.050781 L 193.894531 167.050781 L 207.410156 169.925781 L 209.582031 177.675781 L 200.878906 177.277344 C 200.765625 177.273438 200.667969 177.308594 200.582031 177.386719 C 200.5 177.464844 200.453125 177.558594 200.449219 177.675781 C 200.445312 177.789062 200.480469 177.886719 200.558594 177.972656 C 200.636719 178.054688 200.730469 178.101562 200.847656 178.105469 L 209.8125 178.519531 L 213.648438 192.234375 L 200.664062 194.148438 C 197.332031 194.519531 194.53125 193.714844 192.785156 191.867188 Z M 182.824219 298.25 C 183.824219 295.414062 187.183594 294.355469 190.148438 293.425781 C 191.125 293.121094 192.046875 292.832031 192.867188 292.492188 C 196.960938 290.800781 205.875 285.5625 207.863281 280.035156 L 223.867188 280.035156 C 220.933594 285.023438 214.59375 289.929688 210.167969 291.726562 C 209.363281 292.050781 208.4375 292.332031 207.460938 292.640625 C 204.242188 293.625 200.605469 294.746094 199.4375 297.976562 C 199.09375 298.917969 198.886719 299.890625 198.816406 300.894531 L 182.261719 300.894531 C 182.328125 299.984375 182.515625 299.105469 182.824219 298.25 Z M 184.28125 303.941406 C 184.027344 303.941406 183.78125 303.894531 183.542969 303.804688 C 183.304688 303.710938 183.09375 303.578125 182.902344 303.40625 C 182.714844 303.234375 182.566406 303.03125 182.453125 302.804688 C 182.339844 302.574219 182.273438 302.332031 182.25 302.078125 C 182.242188 301.960938 182.242188 301.835938 182.242188 301.722656 L 198.800781 301.722656 C 198.808594 301.863281 198.800781 302.011719 198.816406 302.144531 C 198.875 302.855469 199.160156 303.453125 199.679688 303.941406 Z M 245.691406 302.027344 C 245.675781 302.292969 245.609375 302.542969 245.496094 302.777344 C 245.382812 303.015625 245.230469 303.222656 245.035156 303.402344 C 244.84375 303.582031 244.621094 303.714844 244.375 303.808594 C 244.128906 303.902344 243.875 303.949219 243.613281 303.941406 L 201.714844 303.941406 C 201.457031 303.945312 201.207031 303.898438 200.964844 303.808594 C 200.726562 303.71875 200.507812 303.585938 200.316406 303.414062 C 200.125 303.242188 199.96875 303.039062 199.851562 302.808594 C 199.734375 302.578125 199.664062 302.335938 199.636719 302.078125 C 199.628906 301.96875 199.628906 301.835938 199.628906 301.722656 L 245.710938 301.722656 C 245.699219 301.878906 245.699219 301.996094 245.691406 302.027344 Z M 245.734375 300.894531 L 199.644531 300.894531 C 199.714844 299.984375 199.902344 299.105469 200.214844 298.25 C 201.242188 295.414062 204.675781 294.363281 207.707031 293.425781 C 208.703125 293.121094 209.636719 292.839844 210.476562 292.5 C 215.15625 290.59375 221.910156 285.316406 224.828125 280.035156 L 242.785156 280.035156 C 245.726562 287.792969 245.800781 297.578125 245.734375 300.894531 Z M 274.207031 220.332031 C 272.984375 222.433594 271.367188 224.167969 269.359375 225.535156 C 268.664062 205.617188 254.675781 196.675781 251.011719 194.679688 C 251.308594 194.46875 251.515625 194.195312 251.632812 193.851562 C 251.75 193.511719 251.761719 193.167969 251.660156 192.820312 L 251.601562 192.613281 C 252.746094 192.613281 253.894531 192.597656 255.046875 192.582031 L 274.585938 194.808594 C 277.082031 203.113281 278.878906 212.4375 274.207031 220.332031 Z M 291.523438 191.6875 C 289.601562 194.082031 286.554688 195.191406 282.714844 194.910156 L 255.113281 191.753906 C 255.105469 191.753906 255.097656 191.761719 255.089844 191.761719 C 255.082031 191.761719 255.074219 191.753906 255.066406 191.753906 C 253.753906 191.777344 252.4375 191.792969 251.121094 191.792969 L 251.027344 191.792969 C 248.175781 191.832031 245.335938 191.65625 242.511719 191.265625 C 241.328125 191.039062 240.171875 190.710938 239.046875 190.277344 C 238.34375 190.046875 237.613281 189.871094 236.917969 189.613281 C 236.03125 189.273438 234.804688 188.835938 234.199219 188.066406 C 234.109375 187.941406 234.125 187.992188 234.199219 187.933594 C 234.414062 187.792969 234.648438 187.730469 234.902344 187.742188 C 235.316406 187.785156 235.742188 187.925781 236.15625 188.007812 C 236.769531 188.132812 237.382812 188.222656 238.003906 188.296875 C 239.691406 188.902344 241.410156 189.441406 243.15625 189.886719 C 243.265625 189.914062 243.367188 189.898438 243.464844 189.84375 C 243.558594 189.785156 243.621094 189.703125 243.652344 189.59375 C 243.679688 189.488281 243.667969 189.386719 243.613281 189.289062 C 243.558594 189.191406 243.480469 189.125 243.371094 189.09375 C 241.191406 188.53125 239.050781 187.847656 236.949219 187.039062 C 235.882812 186.625 234.820312 186.175781 233.777344 185.703125 C 233.328125 185.496094 232.800781 185.265625 232.601562 184.785156 C 232.308594 184.078125 233.105469 183.839844 233.636719 183.730469 C 233.644531 183.730469 233.652344 183.722656 233.667969 183.722656 C 235.15625 184.460938 236.6875 185.09375 238.257812 185.628906 C 240.050781 186.308594 241.839844 186.996094 243.628906 187.675781 C 244.132812 187.867188 244.351562 187.0625 243.851562 186.878906 C 240.984375 185.785156 238.050781 184.785156 235.234375 183.566406 C 234.632812 183.3125 234.050781 183.011719 233.496094 182.671875 C 233.179688 182.476562 232.882812 182.253906 232.609375 182.007812 C 232.410156 181.824219 231.96875 181.503906 231.886719 181.238281 C 231.664062 180.523438 233.203125 180.855469 233.554688 180.914062 C 234.058594 181.003906 234.5625 181.097656 235.078125 181.171875 C 235.816406 181.617188 236.5625 182.050781 237.324219 182.457031 C 239.535156 183.640625 241.824219 184.660156 244.183594 185.511719 C 244.679688 185.695312 244.898438 184.898438 244.398438 184.71875 C 242.496094 184.019531 240.640625 183.21875 238.832031 182.304688 C 237.953125 181.867188 237.089844 181.394531 236.246094 180.90625 C 235.355469 180.445312 234.515625 179.914062 233.71875 179.304688 C 233.511719 179.132812 232.941406 178.675781 233.023438 178.34375 C 233.121094 177.964844 233.992188 178.105469 234.265625 178.144531 C 235.09375 178.292969 235.894531 178.53125 236.667969 178.867188 C 238.386719 179.539062 240.144531 180.09375 241.9375 180.523438 C 243.820312 181 245.730469 181.171875 247.664062 181.039062 C 247.804688 181.113281 247.9375 181.097656 248.0625 180.996094 C 248.269531 180.980469 248.484375 180.957031 248.691406 180.921875 C 249.214844 180.839844 248.992188 180.042969 248.46875 180.117188 C 248.351562 180.144531 248.238281 180.152344 248.121094 180.167969 L 247.390625 177.558594 C 249.125 177.542969 250.820312 177.78125 252.480469 178.277344 C 254.140625 178.777344 255.691406 179.507812 257.128906 180.476562 C 257.136719 180.484375 257.152344 180.484375 257.160156 180.492188 C 257.175781 180.5 257.191406 180.507812 257.210938 180.507812 C 257.292969 180.546875 257.375 180.546875 257.460938 180.515625 L 285.847656 176.53125 C 285.960938 176.511719 286.050781 176.457031 286.117188 176.367188 C 286.1875 176.273438 286.210938 176.171875 286.195312 176.058594 C 286.183594 175.945312 286.128906 175.855469 286.039062 175.785156 C 285.949219 175.714844 285.84375 175.691406 285.734375 175.710938 L 270.527344 177.847656 L 266.433594 166.828125 L 286.769531 160.753906 L 292.964844 181.46875 C 294.117188 185.3125 293.578125 189.125 291.523438 191.6875 Z M 183.617188 198.628906 C 184.222656 197.683594 184.6875 196.675781 185.019531 195.601562 C 185.347656 194.53125 185.53125 193.433594 185.566406 192.3125 C 185.601562 191.191406 185.492188 190.085938 185.230469 188.996094 C 184.964844 187.90625 184.566406 186.867188 184.023438 185.886719 C 183.523438 184.9375 182.910156 184.066406 182.191406 183.273438 C 181.472656 182.476562 180.667969 181.78125 179.777344 181.1875 C 178.886719 180.589844 177.933594 180.113281 176.925781 179.753906 C 175.914062 179.398438 174.875 179.167969 173.808594 179.066406 C 174.789062 177.746094 175.480469 176.289062 175.878906 174.691406 C 176.890625 170.847656 176.027344 167.066406 175.191406 163.421875 C 175.082031 162.949219 174.96875 162.46875 174.867188 161.988281 L 167.75 129.746094 C 168.039062 128.460938 168.28125 127.160156 168.570312 125.867188 C 168.863281 124.824219 169.050781 123.765625 169.132812 122.683594 C 169.207031 120.058594 168.046875 117.582031 167.394531 115.085938 C 167.371094 115.019531 167.335938 114.957031 167.285156 114.90625 C 167.335938 114.472656 167.394531 114.050781 167.433594 113.621094 C 167.859375 109.945312 167.882812 106.269531 167.5 102.589844 C 168.613281 102.246094 169.6875 101.8125 170.726562 101.289062 C 170.808594 101.253906 170.867188 101.195312 170.902344 101.117188 C 170.9375 101.035156 170.945312 100.953125 170.914062 100.867188 C 170.90625 100.851562 170.914062 100.84375 170.914062 100.824219 C 170.171875 97.082031 168.695312 93.253906 166.191406 90.320312 C 163.789062 87.507812 160.175781 86.175781 156.589844 85.695312 C 155.726562 85.582031 154.859375 85.519531 153.988281 85.511719 C 153.914062 85.488281 153.835938 85.488281 153.761719 85.511719 C 150.609375 85.507812 147.609375 86.183594 144.765625 87.535156 C 144.742188 87.421875 144.683594 87.335938 144.582031 87.277344 C 140.132812 84.5 134.183594 84.105469 129.808594 87.246094 C 127.820312 88.675781 126.398438 90.539062 125.546875 92.835938 C 124.734375 94.992188 124.347656 97.628906 122.539062 99.226562 C 121.527344 100.113281 120.160156 100.484375 119.042969 101.214844 C 118.042969 101.851562 117.226562 102.667969 116.589844 103.667969 C 115.988281 104.703125 115.71875 105.820312 115.777344 107.015625 C 115.804688 108.183594 116.050781 109.433594 115.769531 110.59375 C 115.4375 111.980469 114.195312 112.277344 113.035156 112.773438 C 111.933594 113.234375 111.089844 113.988281 110.507812 115.027344 C 109.9375 116.148438 109.726562 117.328125 109.878906 118.574219 C 109.988281 119.25 109.96875 119.917969 109.8125 120.582031 C 109.605469 121.1875 109.066406 121.601562 108.691406 122.097656 C 107.542969 123.605469 106.722656 125.550781 106.828125 127.484375 C 106.960938 129.703125 108.371094 131.351562 110.234375 132.390625 C 109.28125 133.472656 108.441406 134.640625 107.714844 135.886719 L 104.035156 142.554688 C 103.992188 142.589844 103.957031 142.632812 103.929688 142.679688 C 103.894531 142.730469 103.878906 142.785156 103.878906 142.847656 L 85.035156 177.003906 C 84.664062 177.675781 84.363281 178.378906 84.136719 179.113281 C 83.910156 179.847656 83.761719 180.597656 83.6875 181.363281 C 83.613281 182.128906 83.617188 182.890625 83.703125 183.65625 C 83.785156 184.421875 83.945312 185.167969 84.183594 185.898438 C 84.421875 186.628906 84.730469 187.328125 85.113281 187.996094 C 85.492188 188.664062 85.9375 189.285156 86.445312 189.863281 C 86.953125 190.4375 87.515625 190.957031 88.132812 191.417969 C 88.746094 191.878906 89.402344 192.273438 90.097656 192.597656 C 88.316406 194.976562 80.015625 206.984375 83.652344 219.089844 C 86.964844 230.152344 95.941406 236.058594 108.859375 236.058594 C 109.480469 236.058594 110.125 236.027344 110.773438 236.003906 C 110.8125 236.019531 110.855469 236.03125 110.898438 236.035156 C 110.945312 236.03125 110.988281 236.015625 111.03125 235.992188 C 113.789062 235.851562 116.527344 235.5 119.234375 234.941406 C 122.640625 234.253906 125.707031 233.558594 128.390625 232.886719 L 119.78125 243.625 C 116.523438 245.632812 113.484375 248.480469 111.675781 251.878906 C 111.398438 252.410156 111.15625 252.960938 110.957031 253.527344 C 110.945312 253.535156 110.9375 253.535156 110.9375 253.542969 C 110.902344 253.601562 110.882812 253.667969 110.878906 253.734375 C 110.824219 253.917969 110.75 254.101562 110.699219 254.289062 C 110.554688 254.71875 110.484375 255.15625 110.492188 255.609375 C 110.5625 256.09375 110.789062 256.484375 111.179688 256.785156 C 112.878906 258.351562 115.046875 259.394531 117.027344 260.539062 C 119.433594 261.914062 121.828125 263.292969 124.222656 264.671875 L 120.121094 273.390625 C 117.671875 275.007812 115.605469 277.015625 113.921875 279.414062 C 113.660156 279.800781 113.421875 280.203125 113.210938 280.617188 C 113.117188 280.652344 113.050781 280.714844 113.007812 280.800781 C 112.960938 280.886719 112.953125 280.976562 112.976562 281.070312 C 112.222656 282.488281 111.964844 283.992188 112.207031 285.578125 C 112.738281 288.230469 115.125 289.964844 117.019531 291.652344 C 118.113281 292.613281 119.085938 293.683594 119.929688 294.867188 C 120.773438 296.0625 121.535156 297.3125 122.398438 298.5 C 123.21875 299.691406 124.191406 300.746094 125.316406 301.65625 C 126.441406 302.511719 127.671875 303.171875 129.003906 303.644531 C 131.804688 304.640625 134.851562 304.855469 137.804688 304.746094 C 140.324219 304.664062 143.554688 304.597656 145.542969 302.808594 C 146.054688 302.335938 146.410156 301.765625 146.605469 301.097656 C 146.804688 300.429688 146.8125 299.761719 146.636719 299.085938 C 146.273438 297.554688 145.113281 296.378906 144.042969 295.292969 C 141.867188 293.097656 139.953125 290.695312 138.300781 288.082031 C 136.601562 285.507812 135.324219 282.742188 134.464844 279.78125 C 134.300781 279.179688 134.171875 278.570312 134.074219 277.957031 L 138.523438 271.433594 C 139.816406 272.121094 141.21875 272.910156 142.707031 272.917969 C 143.425781 272.921875 144.074219 272.71875 144.65625 272.304688 C 144.703125 272.285156 144.746094 272.257812 144.78125 272.222656 C 145.171875 271.921875 145.507812 271.570312 145.792969 271.167969 C 147.117188 269.289062 147.367188 266.636719 146.902344 264.425781 C 146.679688 263.269531 146.1875 262.238281 145.433594 261.332031 L 172.953125 221.0625 C 174.175781 219.328125 175.046875 217.4375 175.574219 215.382812 C 176.097656 213.332031 176.238281 211.25 175.996094 209.144531 Z M 168.304688 122.683594 C 168.21875 123.71875 168.035156 124.738281 167.75 125.734375 C 167.460938 127.035156 167.21875 128.34375 166.929688 129.636719 C 166.921875 129.644531 166.929688 129.652344 166.921875 129.652344 C 166.910156 129.714844 166.910156 129.777344 166.921875 129.835938 L 174.054688 162.171875 C 174.164062 162.652344 174.273438 163.132812 174.378906 163.605469 C 175.199219 167.160156 176.035156 170.828125 175.082031 174.484375 C 174.421875 177.003906 172.863281 180.25 169.191406 181.429688 C 166.316406 182.355469 163.199219 181.4375 161.0625 179.042969 C 159.089844 176.816406 157.730469 174.265625 156.988281 171.382812 L 153.96875 161.035156 C 154.230469 158.097656 154.285156 155.15625 154.128906 152.210938 L 159 149.996094 L 160.242188 171.949219 C 160.25 172.058594 160.292969 172.152344 160.371094 172.226562 C 160.453125 172.300781 160.546875 172.339844 160.65625 172.335938 L 160.683594 172.335938 C 160.796875 172.328125 160.890625 172.28125 160.964844 172.195312 C 161.042969 172.113281 161.078125 172.011719 161.070312 171.898438 L 159.796875 149.351562 L 159.316406 140.898438 C 159.972656 139.773438 160.546875 138.609375 161.039062 137.402344 C 162.414062 133.871094 163.25 130.21875 163.539062 126.4375 C 163.628906 126.367188 163.714844 126.289062 163.796875 126.207031 C 164.683594 125.210938 165.332031 124.078125 165.746094 122.808594 C 166.195312 121.449219 166.527344 120.058594 166.746094 118.640625 C 166.855469 118.027344 166.945312 117.414062 167.039062 116.792969 C 167.652344 118.722656 168.363281 120.664062 168.304688 122.683594 Z M 154.972656 177.449219 C 153.691406 175.199219 152.28125 173.027344 150.738281 170.945312 C 150.6875 170.878906 150.640625 170.820312 150.589844 170.761719 C 152.015625 168.550781 153.167969 166.199219 153.5625 163.992188 C 153.613281 163.703125 153.664062 163.40625 153.714844 163.113281 L 156.183594 171.601562 C 156.960938 174.609375 158.386719 177.273438 160.449219 179.597656 C 161.242188 180.488281 162.171875 181.199219 163.242188 181.726562 L 157.261719 183.964844 C 157.261719 183.921875 157.269531 183.871094 157.269531 183.832031 C 157.183594 181.519531 156.132812 179.398438 154.972656 177.449219 Z M 152.480469 190.039062 C 152.046875 189.941406 151.621094 189.960938 151.199219 190.097656 C 150.777344 190.234375 150.417969 190.46875 150.125 190.800781 L 149.570312 191.429688 C 147.703125 190.976562 145.808594 190.75 143.886719 190.75 C 143.105469 190.726562 142.320312 190.71875 141.53125 190.726562 L 156.324219 185.199219 C 156.136719 186.386719 155.714844 187.484375 155.0625 188.496094 C 154.644531 189.140625 154.175781 189.746094 153.65625 190.3125 Z M 139.113281 190.75 L 139.128906 190.800781 C 138.441406 190.832031 137.753906 190.882812 137.066406 190.933594 L 142.402344 180.425781 C 145.261719 177.714844 147.820312 174.746094 150.082031 171.515625 C 151.054688 172.808594 151.964844 174.136719 152.816406 175.527344 C 154.003906 177.46875 155.335938 179.390625 156.023438 181.578125 C 156.3125 182.457031 156.4375 183.359375 156.40625 184.285156 Z M 142.238281 114.613281 C 142.082031 114.171875 141.898438 113.742188 141.691406 113.320312 C 141.730469 112.949219 141.675781 112.59375 141.523438 112.253906 C 141.125 111.332031 140.191406 110.851562 139.445312 111.175781 C 138.691406 111.507812 138.40625 112.507812 138.804688 113.429688 C 139.210938 114.347656 140.140625 114.828125 140.886719 114.507812 C 141.003906 114.449219 141.117188 114.378906 141.21875 114.292969 C 141.539062 115.089844 141.757812 115.917969 141.878906 116.769531 C 142.476562 120.9375 140.753906 125.320312 139.261719 129.214844 C 138.300781 131.75 137.339844 134.285156 136.867188 136.972656 C 136.417969 139.601562 136.269531 142.246094 136.417969 144.910156 C 134.441406 143.78125 132.914062 142.210938 131.835938 140.203125 C 128.730469 134.277344 131.855469 126.996094 132.492188 125.636719 L 134.644531 125.636719 C 134.78125 125.660156 134.890625 125.617188 134.976562 125.511719 C 137.320312 122.949219 139.355469 120.164062 141.085938 117.160156 C 141.140625 117.074219 141.152344 116.980469 141.125 116.886719 L 141.125 116.851562 C 141.117188 116.835938 141.117188 116.820312 141.109375 116.808594 C 141.082031 116.71875 141.027344 116.644531 140.945312 116.59375 C 139.460938 115.683594 138.058594 114.359375 137.496094 112.667969 C 137.199219 111.898438 137.152344 111.117188 137.363281 110.320312 C 137.539062 109.808594 138.144531 109.683594 138.625 109.683594 C 139.441406 109.699219 140.167969 109.964844 140.804688 110.480469 C 140.835938 110.511719 140.871094 110.535156 140.910156 110.554688 C 141.382812 110.78125 141.875 110.9375 142.390625 111.03125 C 142.90625 111.121094 143.425781 111.144531 143.945312 111.09375 C 144.464844 111.046875 144.972656 110.929688 145.460938 110.742188 C 145.949219 110.554688 146.40625 110.308594 146.828125 110 C 148.484375 108.707031 149.296875 106.585938 149.347656 104.523438 C 155.070312 104.296875 160.957031 104.378906 166.523438 102.871094 C 166.582031 102.863281 166.632812 102.839844 166.691406 102.832031 C 166.980469 105.753906 167.007812 108.679688 166.773438 111.605469 C 166.597656 114.746094 166.152344 117.84375 165.4375 120.902344 C 164.824219 123.414062 163.730469 125.859375 161.269531 127.019531 C 159.667969 127.738281 157.988281 128.066406 156.230469 128.003906 L 156.214844 128.003906 C 155.160156 127.972656 154.125 127.828125 153.101562 127.574219 C 150.066406 126.738281 147.425781 125.21875 145.167969 123.023438 C 145.117188 122.976562 145.058594 122.945312 144.992188 122.925781 C 144.925781 122.910156 144.859375 122.90625 144.792969 122.921875 C 144.722656 122.9375 144.664062 122.96875 144.609375 123.011719 C 144.558594 123.054688 144.515625 123.109375 144.492188 123.175781 C 144.40625 123.34375 144.4375 123.492188 144.582031 123.613281 C 146.945312 125.878906 149.707031 127.453125 152.859375 128.335938 C 152.121094 129.390625 151.398438 130.457031 150.6875 131.535156 C 150.6875 131.539062 150.6875 131.542969 150.679688 131.542969 C 150.214844 132.246094 149.753906 132.945312 149.296875 133.65625 C 149.007812 134.105469 149.726562 134.519531 150.007812 134.070312 C 150.273438 133.664062 150.546875 133.257812 150.8125 132.84375 C 151.167969 135.339844 151.484375 141.894531 145.832031 145.25 C 144.785156 145.84375 143.664062 146.207031 142.46875 146.335938 C 141.269531 146.464844 140.097656 146.351562 138.945312 145.996094 C 138.371094 145.824219 137.808594 145.609375 137.265625 145.347656 C 137.125 143.226562 137.171875 141.109375 137.40625 138.992188 C 137.777344 136.171875 138.488281 133.441406 139.542969 130.796875 C 140.511719 128.222656 141.679688 125.460938 142.34375 122.652344 C 142.972656 119.976562 143.148438 117.257812 142.238281 114.613281 Z M 158.875 133.167969 C 158.875 133.121094 158.863281 133.078125 158.84375 133.035156 C 158.835938 133.019531 158.835938 133.011719 158.824219 133.003906 C 158.824219 132.992188 158.824219 132.984375 158.816406 132.984375 C 157.9375 131.6875 157.253906 130.296875 156.761719 128.808594 C 157.929688 128.789062 159.070312 128.617188 160.191406 128.296875 C 161.066406 128.046875 161.882812 127.671875 162.636719 127.167969 C 162.242188 131.441406 161.105469 135.503906 159.222656 139.359375 Z M 158.949219 149.109375 L 154.078125 151.324219 C 154.003906 149.996094 153.894531 148.78125 153.796875 147.726562 C 154.734375 146.800781 155.660156 145.863281 156.523438 144.859375 C 157.261719 143.996094 157.9375 143.082031 158.550781 142.125 Z M 156.296875 129.894531 L 153.125 129.414062 C 153.324219 129.132812 153.515625 128.84375 153.714844 128.558594 C 153.71875 128.554688 153.722656 128.546875 153.722656 128.535156 C 154.433594 128.675781 155.152344 128.765625 155.875 128.800781 C 156.015625 129.164062 156.148438 129.53125 156.296875 129.894531 Z M 138.722656 146.789062 C 139.671875 147.0625 140.636719 147.199219 141.625 147.203125 C 143.28125 147.214844 144.824219 146.800781 146.253906 145.960938 C 153.25 141.808594 151.765625 133.175781 151.484375 131.832031 C 151.847656 131.277344 152.230469 130.722656 152.609375 130.167969 L 156.648438 130.789062 L 156.679688 130.789062 C 156.722656 130.878906 156.753906 130.972656 156.796875 131.054688 C 157.140625 131.851562 157.558594 132.605469 158.054688 133.316406 L 158.46875 140.726562 C 157.777344 141.914062 156.988281 143.035156 156.101562 144.089844 C 155.328125 144.992188 154.515625 145.847656 153.679688 146.683594 C 153.488281 144.96875 153.316406 143.890625 153.308594 143.855469 C 153.289062 143.746094 153.234375 143.65625 153.140625 143.585938 C 153.050781 143.519531 152.949219 143.496094 152.835938 143.515625 C 152.722656 143.535156 152.632812 143.59375 152.566406 143.6875 C 152.5 143.78125 152.476562 143.882812 152.496094 143.996094 C 152.496094 144.03125 152.710938 145.355469 152.925781 147.429688 C 150.648438 149.691406 148.292969 151.878906 146.488281 154.5625 C 144.9375 156.871094 143.902344 159.390625 143.386719 162.121094 C 142.144531 160.523438 141.070312 158.816406 140.164062 157.007812 C 138.851562 154.226562 137.984375 151.3125 137.5625 148.265625 C 137.464844 147.609375 137.398438 146.949219 137.332031 146.292969 C 137.785156 146.488281 138.25 146.652344 138.722656 146.789062 Z M 146.835938 155.53125 C 148.195312 153.492188 149.761719 151.628906 151.535156 149.9375 C 152.03125 149.449219 152.535156 148.960938 153.035156 148.472656 C 153.40625 152.53125 153.6875 158.648438 152.753906 163.84375 C 152.386719 165.839844 151.34375 168.003906 150.035156 170.066406 C 148.46875 168.121094 146.785156 166.273438 145.179688 164.359375 C 144.804688 163.910156 144.441406 163.453125 144.074219 163 C 144.488281 160.320312 145.40625 157.832031 146.835938 155.53125 Z M 153.921875 86.332031 C 154.359375 86.339844 154.808594 86.347656 155.253906 86.382812 C 158.578125 86.621094 162.289062 87.632812 164.75 89.996094 C 167.625 92.761719 169.226562 96.839844 170.039062 100.703125 C 166.972656 102.183594 163.539062 102.796875 160.175781 103.136719 C 156.449219 103.511719 152.6875 103.550781 148.941406 103.710938 C 148.886719 103.710938 148.832031 103.722656 148.78125 103.742188 C 148.765625 103.75 148.757812 103.757812 148.75 103.757812 C 148.59375 103.828125 148.515625 103.953125 148.527344 104.125 C 148.574219 106.03125 147.914062 108.019531 146.414062 109.269531 C 145.703125 109.820312 144.902344 110.152344 144.011719 110.261719 C 143.121094 110.371094 142.261719 110.246094 141.441406 109.882812 C 141.445312 109.855469 141.445312 109.828125 141.441406 109.800781 C 140.863281 106.136719 141.078125 102.519531 142.085938 98.953125 C 142.601562 97.203125 143.351562 95.5625 144.339844 94.027344 C 145.328125 92.496094 146.507812 91.132812 147.886719 89.9375 C 149.703125 88.410156 151.714844 87.207031 153.921875 86.332031 Z M 107.65625 127.484375 C 107.632812 125.765625 108.136719 124.21875 109.164062 122.84375 C 109.777344 121.957031 110.582031 121.367188 110.722656 120.234375 C 110.890625 118.972656 110.484375 117.714844 110.8125 116.46875 C 110.964844 115.886719 111.226562 115.355469 111.597656 114.878906 C 111.964844 114.402344 112.414062 114.019531 112.945312 113.726562 C 113.964844 113.179688 115.191406 113.023438 115.960938 112.070312 C 117.410156 110.289062 116.308594 107.761719 116.679688 105.714844 C 117.136719 103.203125 119.382812 101.894531 121.480469 100.859375 C 122.5625 100.367188 123.441406 99.632812 124.113281 98.65625 C 124.707031 97.710938 125.160156 96.707031 125.480469 95.636719 C 125.847656 94.554688 126.152344 93.441406 126.617188 92.398438 C 127.09375 91.332031 127.722656 90.371094 128.507812 89.507812 C 129.414062 88.503906 130.472656 87.695312 131.675781 87.078125 C 132.882812 86.464844 134.15625 86.078125 135.5 85.925781 C 136.992188 85.777344 138.46875 85.871094 139.933594 86.214844 C 141.394531 86.554688 142.761719 87.121094 144.035156 87.914062 C 141.511719 89.246094 139.484375 91.113281 137.953125 93.515625 C 134.917969 98.363281 135.160156 104.230469 136.933594 109.476562 C 136.925781 109.484375 136.910156 109.492188 136.898438 109.5 C 136.304688 110.179688 136.363281 111.308594 136.503906 112.144531 C 136.703125 113.152344 137.125 114.058594 137.761719 114.863281 C 138.441406 115.738281 139.242188 116.476562 140.171875 117.074219 C 138.542969 119.847656 136.652344 122.421875 134.496094 124.808594 L 126.964844 124.808594 C 125.453125 124.808594 123.957031 124.964844 122.476562 125.273438 C 120.996094 125.582031 119.5625 126.03125 118.175781 126.632812 C 116.789062 127.230469 115.472656 127.960938 114.234375 128.824219 C 112.996094 129.691406 111.855469 130.671875 110.8125 131.765625 C 109.140625 130.878906 107.773438 129.472656 107.65625 127.484375 Z M 108.4375 136.300781 C 109.378906 134.679688 110.519531 133.210938 111.847656 131.886719 C 113.175781 130.566406 114.65625 129.4375 116.28125 128.5 C 117.90625 127.566406 119.625 126.855469 121.433594 126.367188 C 123.246094 125.882812 125.089844 125.636719 126.964844 125.636719 L 131.570312 125.636719 C 130.652344 127.691406 127.992188 134.632812 131.109375 140.585938 C 132.34375 142.910156 134.132812 144.675781 136.46875 145.886719 L 136.46875 145.9375 C 136.691406 148.9375 137.304688 151.855469 138.300781 154.695312 C 139.300781 157.410156 140.675781 159.921875 142.425781 162.226562 C 144.132812 164.515625 146.054688 166.621094 147.914062 168.792969 C 148.476562 169.453125 149.015625 170.125 149.546875 170.8125 C 147.265625 174.09375 144.675781 177.109375 141.78125 179.863281 C 141.742188 179.898438 141.714844 179.9375 141.699219 179.984375 L 138.316406 186.640625 L 106.671875 175.023438 L 123.003906 146.492188 C 123.0625 146.394531 123.074219 146.289062 123.046875 146.179688 C 123.015625 146.070312 122.953125 145.984375 122.855469 145.929688 C 122.757812 145.871094 122.652344 145.855469 122.542969 145.886719 C 122.433594 145.914062 122.347656 145.980469 122.292969 146.078125 L 119.53125 150.890625 L 104.882812 142.738281 Z M 85.40625 186.757812 C 85.066406 186.019531 84.816406 185.25 84.65625 184.453125 C 84.496094 183.652344 84.429688 182.847656 84.460938 182.035156 C 84.492188 181.222656 84.617188 180.425781 84.839844 179.640625 C 85.058594 178.859375 85.367188 178.109375 85.765625 177.402344 L 104.484375 143.460938 L 119.125 151.605469 L 103.117188 179.5625 L 95.085938 176.570312 C 94.976562 176.535156 94.871094 176.539062 94.765625 176.585938 C 94.664062 176.636719 94.589844 176.714844 94.546875 176.820312 C 94.511719 176.929688 94.515625 177.035156 94.5625 177.136719 C 94.613281 177.238281 94.691406 177.3125 94.796875 177.351562 L 133.976562 191.933594 C 134.046875 191.984375 134.128906 192 134.214844 191.992188 C 138.550781 191.578125 143.066406 191.222656 147.40625 191.859375 C 148.332031 191.984375 149.238281 192.191406 150.125 192.480469 C 151.367188 192.96875 152.511719 193.628906 153.546875 194.472656 C 154.746094 195.296875 155.875 196.214844 156.929688 197.222656 C 157.121094 197.363281 157.261719 197.546875 157.351562 197.765625 C 157.441406 197.984375 157.46875 198.210938 157.433594 198.449219 C 157.292969 199.011719 156.761719 198.988281 156.289062 198.855469 C 156.257812 198.847656 156.222656 198.84375 156.191406 198.847656 C 156.089844 198.746094 155.992188 198.65625 155.902344 198.574219 C 154.019531 196.824219 151.675781 195.878906 149.3125 194.984375 C 148.457031 194.671875 147.585938 194.425781 146.695312 194.246094 C 146.171875 194.140625 145.949219 194.933594 146.472656 195.050781 C 148.546875 195.523438 150.539062 196.234375 152.445312 197.179688 C 153.722656 197.796875 154.847656 198.621094 155.816406 199.65625 C 156.222656 200.023438 156.519531 200.460938 156.703125 200.976562 C 156.84375 201.65625 156.117188 201.960938 155.5625 201.871094 C 155.21875 201.28125 154.761719 200.808594 154.1875 200.445312 C 153.222656 199.789062 152.207031 199.222656 151.144531 198.746094 C 150.027344 198.242188 148.890625 197.875 147.730469 197.480469 C 146.941406 197.207031 146.132812 196.992188 145.3125 196.839844 C 144.789062 196.742188 144.566406 197.546875 145.09375 197.636719 C 146.597656 197.933594 148.058594 198.367188 149.480469 198.9375 C 150.457031 199.316406 151.40625 199.765625 152.320312 200.28125 C 153.148438 200.734375 154.351562 201.296875 154.789062 202.183594 C 154.839844 202.265625 154.871094 202.351562 154.882812 202.445312 C 154.890625 202.539062 154.882812 202.628906 154.851562 202.71875 C 154.824219 202.804688 154.777344 202.882812 154.710938 202.953125 C 154.648438 203.019531 154.570312 203.070312 154.484375 203.105469 C 154.082031 203.136719 153.699219 203.058594 153.339844 202.875 C 152.054688 202.382812 150.855469 201.6875 149.578125 201.15625 C 147.769531 200.34375 145.871094 199.949219 143.886719 199.972656 C 143.769531 199.957031 143.671875 199.992188 143.589844 200.074219 C 143.507812 200.15625 143.472656 200.253906 143.488281 200.371094 C 143.46875 200.492188 143.5 200.59375 143.582031 200.683594 C 143.664062 200.773438 143.765625 200.8125 143.886719 200.800781 C 145.71875 200.984375 147.8125 201.488281 149.328125 202.566406 C 149.777344 202.890625 150.796875 203.703125 150.457031 204.355469 C 150.300781 204.644531 150.117188 204.628906 149.835938 204.582031 C 149.359375 204.46875 148.898438 204.324219 148.441406 204.148438 C 147.371094 203.746094 146.269531 203.460938 145.136719 203.296875 C 144.03125 203.199219 142.925781 203.207031 141.820312 203.320312 C 140.710938 203.476562 139.59375 203.5625 138.472656 203.585938 C 137.691406 203.535156 136.921875 203.390625 136.171875 203.15625 C 135.144531 202.867188 134.144531 202.5 133.171875 202.0625 C 132.351562 201.730469 131.59375 201.285156 130.902344 200.734375 C 130.890625 200.734375 130.882812 200.726562 130.875 200.726562 C 130.824219 200.675781 130.765625 200.640625 130.695312 200.628906 L 92.726562 192.605469 C 91.925781 192.441406 91.160156 192.1875 90.421875 191.839844 C 89.6875 191.496094 89 191.070312 88.363281 190.558594 C 87.726562 190.050781 87.160156 189.476562 86.660156 188.832031 C 86.160156 188.191406 85.742188 187.496094 85.40625 186.757812 Z M 104.265625 200.617188 L 121.6875 199.570312 L 124.746094 200.214844 L 104.3125 201.445312 C 104.304688 201.445312 104.296875 201.445312 104.289062 201.445312 C 104.175781 201.445312 104.082031 201.40625 104 201.328125 C 103.921875 201.25 103.878906 201.15625 103.875 201.042969 C 103.871094 200.929688 103.90625 200.832031 103.984375 200.75 C 104.058594 200.667969 104.152344 200.625 104.265625 200.617188 Z M 129.722656 232.554688 C 131.125 232.199219 132.417969 231.859375 133.585938 231.535156 L 138.648438 234.039062 L 131.894531 248.382812 C 131.214844 247.984375 130.484375 247.710938 129.707031 247.570312 C 128.613281 247.371094 127.835938 247.875 126.824219 248.199219 C 125.5625 248.605469 124.261719 247.601562 123.320312 246.859375 C 122.269531 246.027344 121.335938 245.082031 120.519531 244.023438 Z M 134.777344 231.195312 C 137.703125 230.367188 139.765625 229.695312 140.871094 229.316406 L 138.996094 233.285156 Z M 118.792969 260.597656 C 116.878906 259.496094 114.890625 258.464844 113.066406 257.222656 C 112.632812 256.929688 112.222656 256.605469 111.832031 256.253906 C 111.621094 256.101562 111.453125 255.910156 111.335938 255.675781 C 111.289062 255.390625 111.316406 255.117188 111.410156 254.84375 C 111.445312 254.6875 111.503906 254.539062 111.542969 254.390625 L 125.25 262.484375 L 124.578125 263.917969 C 122.648438 262.808594 120.726562 261.707031 118.792969 260.597656 Z M 139.925781 303.785156 C 134.503906 304.273438 128.199219 303.902344 124.3125 299.585938 C 122.457031 297.519531 121.238281 294.984375 119.433594 292.878906 C 117.75 290.917969 115.386719 289.566406 113.914062 287.417969 C 112.746094 285.722656 112.753906 283.914062 113.375 282.183594 C 113.773438 282.980469 114.269531 283.707031 114.867188 284.371094 C 115.777344 285.40625 116.796875 286.359375 117.800781 287.304688 C 118.925781 288.347656 120.101562 289.34375 121.15625 290.46875 C 122.09375 291.519531 122.929688 292.652344 123.660156 293.859375 C 125.058594 296.046875 126.441406 298.316406 128.671875 299.75 C 131.015625 301.257812 133.882812 301.714844 136.625 301.722656 C 139.816406 301.722656 143.074219 301.167969 145.882812 299.585938 C 145.90625 299.707031 145.917969 299.832031 145.925781 299.957031 C 146.046875 302.996094 142.195312 303.585938 139.925781 303.785156 Z M 133.519531 277.292969 C 131.480469 275.984375 129.269531 275.023438 126.773438 275.394531 C 125.605469 275.570312 124.355469 276.074219 123.160156 275.851562 C 122.035156 275.644531 121.378906 274.574219 120.933594 273.597656 L 129.5 255.417969 L 142.882812 263.597656 Z M 138.996094 270.746094 L 139.667969 269.769531 L 143.644531 271.933594 C 142.121094 272.511719 140.347656 271.476562 138.996094 270.746094 Z M 172.265625 220.597656 L 143.355469 262.910156 L 129.847656 254.664062 L 142.039062 228.777344 L 142.039062 228.769531 L 148.898438 214.199219 C 148.949219 214.097656 148.953125 213.992188 148.914062 213.886719 C 148.875 213.777344 148.804688 213.699219 148.699219 213.652344 C 148.597656 213.605469 148.492188 213.597656 148.386719 213.636719 C 148.277344 213.679688 148.199219 213.75 148.152344 213.851562 L 141.359375 228.269531 C 140.179688 228.695312 132.191406 231.46875 119.066406 234.128906 C 116.601562 234.636719 114.113281 234.96875 111.601562 235.132812 L 128.714844 201.050781 L 130.4375 201.414062 C 131.835938 202.589844 133.777344 203.289062 135.492188 203.816406 C 136.351562 204.097656 137.234375 204.289062 138.132812 204.390625 C 138.007812 204.550781 137.902344 204.722656 137.820312 204.910156 C 137.738281 205.097656 137.679688 205.289062 137.648438 205.492188 C 137.613281 205.691406 137.609375 205.894531 137.625 206.097656 C 137.644531 206.300781 137.6875 206.496094 137.753906 206.691406 C 137.824219 206.882812 137.914062 207.0625 138.027344 207.230469 C 138.144531 207.402344 138.277344 207.550781 138.429688 207.6875 C 138.582031 207.824219 138.75 207.9375 138.929688 208.027344 C 139.113281 208.121094 139.304688 208.191406 139.503906 208.234375 L 150.523438 210.730469 C 150.957031 210.824219 151.382812 210.804688 151.808594 210.667969 C 152.230469 210.53125 152.589844 210.296875 152.882812 209.964844 L 163.167969 198.339844 C 169.921875 199.226562 172.878906 202.796875 174.171875 205.65625 C 176.195312 210.171875 175.449219 216.03125 172.265625 220.597656 Z M 174.925781 205.316406 C 173.054688 201.15625 169.125 198.441406 163.824219 197.601562 L 164.785156 196.507812 C 164.925781 196.351562 165.042969 196.179688 165.136719 195.992188 C 165.230469 195.804688 165.300781 195.605469 165.34375 195.402344 C 165.390625 195.195312 165.40625 194.984375 165.394531 194.777344 C 165.382812 194.566406 165.347656 194.359375 165.28125 194.160156 C 165.21875 193.957031 165.128906 193.769531 165.015625 193.59375 C 164.902344 193.414062 164.765625 193.253906 164.609375 193.113281 C 164.453125 192.972656 164.285156 192.851562 164.097656 192.753906 C 163.910156 192.65625 163.714844 192.585938 163.507812 192.539062 L 160.476562 191.851562 L 163.285156 188.710938 C 163.363281 188.625 163.398438 188.527344 163.390625 188.410156 C 163.386719 188.296875 163.339844 188.199219 163.25 188.125 C 163.164062 188.050781 163.066406 188.015625 162.953125 188.023438 C 162.839844 188.027344 162.746094 188.074219 162.671875 188.15625 L 159.554688 191.644531 L 154.566406 190.519531 C 155.949219 188.886719 157.027344 186.980469 157.234375 184.859375 L 164.0625 182.304688 C 164.140625 182.277344 164.203125 182.226562 164.246094 182.15625 C 165.117188 182.457031 166.015625 182.609375 166.9375 182.613281 C 167.792969 182.609375 168.632812 182.480469 169.449219 182.222656 C 170.882812 181.75 172.117188 180.960938 173.144531 179.851562 L 173.179688 179.851562 C 174.226562 179.902344 175.253906 180.085938 176.253906 180.402344 C 177.257812 180.71875 178.203125 181.160156 179.089844 181.722656 C 179.976562 182.285156 180.777344 182.953125 181.488281 183.722656 C 182.203125 184.496094 182.804688 185.347656 183.296875 186.277344 C 183.800781 187.191406 184.175781 188.160156 184.417969 189.179688 C 184.664062 190.195312 184.769531 191.226562 184.738281 192.273438 C 184.707031 193.320312 184.535156 194.34375 184.230469 195.347656 C 183.921875 196.347656 183.492188 197.289062 182.929688 198.175781 L 175.796875 208.011719 C 175.597656 207.082031 175.308594 206.183594 174.925781 205.316406 Z M 164.359375 115.210938 C 164.691406 114.835938 164.886719 114.402344 164.953125 113.910156 C 165.019531 113.417969 164.945312 112.949219 164.726562 112.5 C 164.402344 112.03125 163.976562 111.691406 163.449219 111.480469 C 162.976562 111.226562 162.566406 110.894531 162.214844 110.488281 C 161.519531 109.671875 161.15625 108.726562 161.128906 107.652344 C 161.113281 107.125 161.941406 107.125 161.957031 107.652344 C 161.976562 108.292969 162.148438 108.882812 162.476562 109.429688 C 162.804688 109.976562 163.246094 110.410156 163.796875 110.726562 C 164.355469 110.976562 164.835938 111.332031 165.238281 111.789062 C 165.554688 112.210938 165.734375 112.683594 165.777344 113.207031 C 166.058594 115.667969 163.714844 117.148438 161.519531 117.242188 C 160.980469 117.257812 160.988281 116.429688 161.519531 116.414062 C 162.636719 116.410156 163.582031 116.011719 164.359375 115.210938 Z M 164.359375 115.210938 " fill-opacity="1" fill-rule="nonzero"/></g></svg>