<svg xmlns="http://www.w3.org/2000/svg" xmlns:xlink="http://www.w3.org/1999/xlink" width="500" zoomAndPan="magnify" viewBox="0 0 375 374.999991" height="500" preserveAspectRatio="xMidYMid meet" version="1.0"><defs><clipPath id="2c086aefbd"><path d="M 76 62 L 303.289062 62 L 303.289062 312 L 76 312 Z M 76 62 " clip-rule="nonzero"/></clipPath><clipPath id="7bb17cd7b0"><path d="M 71.539062 62 L 299 62 L 299 312 L 71.539062 312 Z M 71.539062 62 " clip-rule="nonzero"/></clipPath></defs><g clip-path="url(#2c086aefbd)"><path fill="#d9dad9" d="M 303.058594 180.9375 L 302.902344 197.871094 C 299.765625 232.136719 286.820312 260.085938 264.066406 281.714844 C 241.148438 303.339844 213.34375 313.070312 180.648438 310.914062 C 149.355469 307.144531 123.730469 292.6875 103.777344 267.539062 C 83.832031 242.210938 74.683594 211.636719 76.339844 175.816406 C 79.480469 141.550781 92.421875 113.601562 115.175781 91.972656 C 138.09375 70.347656 165.902344 60.617188 198.597656 62.777344 C 229.890625 66.542969 255.511719 81 275.464844 106.148438 C 281.863281 114.28125 287.246094 123.222656 291.621094 132.976562 L 297.285156 148.078125 C 300.507812 158.5 302.429688 169.453125 303.058594 180.9375 " fill-opacity="1" fill-rule="nonzero"/></g><g clip-path="url(#7bb17cd7b0)"><path fill="#d9dad9" d="M 72.046875 178.484375 L 71.84375 195.417969 C 74.253906 229.742188 86.601562 257.957031 108.890625 280.066406 C 131.34375 302.171875 158.9375 312.492188 191.671875 311.027344 C 223.039062 307.925781 248.960938 294.015625 269.445312 269.296875 C 289.925781 244.398438 299.71875 214.023438 298.824219 178.179688 C 296.414062 143.855469 284.066406 115.636719 261.777344 93.527344 C 239.324219 71.425781 211.730469 61.105469 178.996094 62.566406 C 147.628906 65.667969 121.707031 79.582031 101.222656 104.296875 C 94.65625 112.292969 89.082031 121.121094 84.5 130.777344 L 78.519531 145.753906 C 75.078125 156.105469 72.917969 167.015625 72.046875 178.484375 " fill-opacity="1" fill-rule="nonzero"/></g><path fill="#b5b6b5" d="M 226.632812 145.085938 L 226.578125 150.5 C 225.535156 161.453125 221.289062 170.394531 213.832031 177.316406 C 206.324219 184.238281 197.21875 187.359375 186.519531 186.683594 C 176.28125 185.492188 167.902344 180.878906 161.378906 172.847656 C 159.289062 170.25 157.53125 167.394531 156.101562 164.277344 L 154.253906 159.453125 C 153.207031 156.121094 152.578125 152.621094 152.378906 148.953125 C 152.058594 137.671875 155.195312 128.109375 161.789062 120.265625 C 168.382812 112.421875 176.933594 108.082031 187.4375 107.25 C 197.96875 106.988281 206.921875 110.414062 214.296875 117.53125 C 221.667969 124.648438 225.78125 133.832031 226.632812 145.085938 " fill-opacity="1" fill-rule="nonzero"/><path fill="#b5b6b5" d="M 149.214844 144.261719 L 149.160156 149.675781 C 149.96875 160.652344 154.023438 169.679688 161.332031 176.761719 C 168.691406 183.839844 177.726562 187.152344 188.4375 186.703125 C 198.699219 185.730469 207.175781 181.296875 213.867188 173.40625 C 216.011719 170.855469 217.832031 168.035156 219.324219 164.949219 L 221.273438 160.164062 C 222.394531 156.855469 223.09375 153.371094 223.371094 149.707031 C 223.933594 138.433594 221 128.808594 214.574219 120.824219 C 208.148438 112.84375 199.691406 108.324219 189.207031 107.269531 C 178.683594 106.78125 169.660156 110.019531 162.136719 116.976562 C 154.613281 123.9375 150.308594 133.03125 149.214844 144.261719 " fill-opacity="1" fill-rule="nonzero"/><path fill="#b5b6b5" d="M 94.722656 263.328125 C 95.722656 264.75 96.757812 266.15625 97.824219 267.539062 C 96.757812 266.15625 95.726562 264.75 94.726562 263.328125 Z M 94.722656 263.328125 " fill-opacity="1" fill-rule="nonzero"/><path fill="#b5b6b5" d="M 185.144531 304.46875 L 182.878906 311.042969 C 183.5 311.074219 184.117188 311.097656 184.726562 311.121094 Z M 185.144531 304.46875 " fill-opacity="1" fill-rule="nonzero"/><path fill="#b5b6b5" d="M 185.835938 216.113281 C 179.582031 216.113281 172.324219 217.144531 164.074219 219.207031 C 159.6875 220.304688 155.019531 221.695312 150.066406 223.375 C 147.945312 223.851562 139.882812 227.027344 125.886719 232.902344 C 123.148438 234.066406 117.609375 237.671875 109.277344 243.730469 C 106.253906 246.167969 103.679688 248.625 101.550781 251.105469 C 99.625 253.351562 98.0625 255.613281 96.867188 257.894531 C 99.007812 261.191406 101.308594 264.40625 103.777344 267.539062 C 123.496094 292.390625 148.75 306.800781 179.539062 310.773438 C 179.507812 310.683594 179.476562 310.589844 179.445312 310.496094 C 178.417969 307.183594 177.765625 304.152344 177.492188 301.394531 C 176.535156 293.933594 175.515625 283.050781 174.433594 268.742188 L 174.003906 263.035156 L 185.5 298.84375 L 186.449219 283.691406 L 183.652344 216.261719 C 184.703125 216.183594 185.789062 216.140625 186.90625 216.128906 L 187.164062 216.128906 L 187.007812 216.125 C 186.621094 216.117188 186.230469 216.113281 185.835938 216.113281 Z M 185.835938 216.113281 " fill-opacity="1" fill-rule="nonzero"/><path fill="#b5b6b5" d="M 187.3125 304.492188 L 187.589844 311.152344 C 188.199219 311.140625 188.8125 311.128906 189.429688 311.113281 L 187.320312 304.515625 Z M 187.3125 304.492188 " fill-opacity="1" fill-rule="nonzero"/><path fill="#b5b6b5" d="M 187.324219 216.128906 L 187.164062 216.128906 L 187.429688 216.136719 C 188.546875 216.167969 189.628906 216.234375 190.675781 216.339844 L 186.449219 283.691406 L 187.078125 298.859375 L 199.332031 263.300781 L 198.78125 269 C 197.394531 283.28125 196.144531 294.140625 195.03125 301.578125 C 194.695312 304.332031 193.980469 307.351562 192.882812 310.640625 C 192.851562 310.734375 192.820312 310.824219 192.785156 310.914062 C 223.652344 307.597656 249.203125 293.722656 269.445312 269.296875 C 271.980469 266.21875 274.347656 263.054688 276.554688 259.804688 C 275.414062 257.5 273.902344 255.203125 272.019531 252.914062 C 269.945312 250.390625 267.421875 247.878906 264.453125 245.378906 C 256.25 239.144531 250.789062 235.421875 248.078125 234.199219 C 234.207031 228.027344 226.214844 224.679688 224.105469 224.160156 C 219.191406 222.375 214.550781 220.886719 210.191406 219.699219 C 201.464844 217.320312 193.84375 216.128906 187.324219 216.128906 Z M 187.324219 216.128906 " fill-opacity="1" fill-rule="nonzero"/><path fill="#b5b6b5" d="M 188.164062 311.199219 C 188.589844 311.203125 189.007812 311.207031 189.429688 311.207031 L 189.449219 311.207031 L 189.429688 311.207031 C 189.007812 311.207031 188.585938 311.203125 188.160156 311.199219 Z M 188.164062 311.199219 " fill-opacity="1" fill-rule="nonzero"/><path fill="#b5b6b5" d="M 179.632812 311.023438 C 179.632812 311.03125 179.636719 311.035156 179.636719 311.042969 L 179.632812 311.042969 C 179.632812 311.035156 179.628906 311.03125 179.625 311.023438 Z M 179.632812 311.023438 " fill-opacity="1" fill-rule="nonzero"/><path fill="#b5b6b5" d="M 199.332031 263.300781 L 186.261719 301.226562 L 189.4375 311.109375 L 189.4375 311.113281 C 189.433594 311.113281 189.433594 311.109375 189.433594 311.109375 L 189.46875 311.207031 C 190.546875 311.207031 191.621094 311.191406 192.6875 311.164062 C 192.722656 311.082031 192.753906 311 192.785156 310.914062 L 192.78125 310.914062 C 192.816406 310.824219 192.851562 310.734375 192.882812 310.640625 C 193.980469 307.351562 194.695312 304.332031 195.03125 301.578125 C 196.144531 294.140625 197.394531 283.28125 198.78125 269 Z M 199.332031 263.300781 " fill-opacity="1" fill-rule="nonzero"/><path fill="#b5b6b5" d="M 174.003906 263.035156 L 174.433594 268.742188 C 175.515625 283.050781 176.535156 293.933594 177.492188 301.394531 C 177.765625 304.152344 178.417969 307.183594 179.445312 310.496094 C 179.476562 310.589844 179.507812 310.683594 179.539062 310.773438 C 179.539062 310.773438 179.542969 310.773438 179.546875 310.777344 L 179.542969 310.777344 C 179.570312 310.859375 179.597656 310.941406 179.625 311.023438 L 179.632812 311.03125 C 179.632812 311.03125 179.632812 311.03125 179.636719 311.03125 L 179.628906 311.03125 C 179.628906 311.03125 179.628906 311.035156 179.632812 311.035156 C 179.632812 311.035156 179.632812 311.03125 179.632812 311.03125 L 179.636719 311.03125 C 180.703125 311.078125 181.773438 311.113281 182.847656 311.136719 L 185.144531 304.46875 L 186.261719 301.226562 Z M 174.003906 263.035156 " fill-opacity="1" fill-rule="nonzero"/><path fill="#b5b6b5" d="M 188.675781 216.164062 L 187.855469 216.179688 C 185.621094 216.261719 183.085938 216.660156 180.246094 217.378906 L 174.90625 287.742188 C 176.46875 288.460938 177.707031 288.785156 178.617188 288.714844 C 180.105469 288.714844 181.515625 288.207031 182.847656 287.191406 C 183.203125 287.09375 184.15625 286.046875 185.710938 284.042969 C 186.316406 283.152344 186.902344 282.136719 187.472656 280.992188 C 190.449219 274.339844 192.800781 268.484375 194.519531 263.421875 C 195.535156 260.074219 196.347656 256.132812 196.960938 251.597656 C 197.558594 246.878906 198.125 240.683594 198.660156 233.011719 C 198.871094 228.625 198.722656 225.160156 198.214844 222.613281 C 197.644531 219.988281 196.847656 218.4375 195.820312 217.957031 C 194.003906 216.761719 191.625 216.164062 188.675781 216.164062 " fill-opacity="1" fill-rule="nonzero"/><path fill="#b5b6b5" d="M 185.65625 216.132812 L 186.480469 216.167969 C 188.710938 216.292969 191.234375 216.746094 194.058594 217.527344 L 197.902344 287.988281 C 196.328125 288.671875 195.082031 288.96875 194.171875 288.878906 C 192.683594 288.847656 191.285156 288.3125 189.976562 287.265625 C 189.621094 287.164062 188.691406 286.09375 187.183594 284.058594 C 186.59375 283.15625 186.027344 282.125 185.484375 280.96875 C 182.648438 274.257812 180.421875 268.351562 178.8125 263.253906 C 177.867188 259.886719 177.136719 255.929688 176.625 251.378906 C 176.125 246.652344 175.691406 240.445312 175.316406 232.761719 C 175.199219 228.375 175.421875 224.914062 175.984375 222.375 C 176.609375 219.765625 177.4375 218.230469 178.476562 217.769531 C 180.316406 216.617188 182.710938 216.070312 185.65625 216.132812 " fill-opacity="1" fill-rule="nonzero"/><path fill="#b5b6b5" d="M 183.410156 285.804688 L 180.9375 308.785156 L 186.429688 309.601562 C 187.78125 309.625 188.917969 309.441406 189.847656 309.0625 C 190.164062 308.855469 190.460938 308.585938 190.734375 308.25 C 191.011719 307.914062 191.265625 307.511719 191.496094 307.042969 L 191.828125 306.289062 C 192.253906 305.21875 192.589844 303.882812 192.84375 302.285156 C 192.976562 300.859375 192.890625 299.441406 192.589844 298.027344 C 192.441406 297.324219 192.234375 296.617188 191.976562 295.917969 C 191.71875 295.214844 191.40625 294.511719 191.042969 293.816406 L 190.453125 292.769531 C 189.832031 291.75 189.023438 290.726562 188.023438 289.695312 C 187.527344 289.179688 186.980469 288.664062 186.390625 288.144531 C 184.828125 286.847656 183.835938 286.070312 183.410156 285.804688 " fill-opacity="1" fill-rule="nonzero"/><path fill="#b5b6b5" d="M 189.445312 285.871094 L 191.425781 308.894531 L 185.917969 309.597656 C 184.570312 309.589844 183.433594 309.382812 182.511719 308.984375 C 182.199219 308.773438 181.910156 308.496094 181.644531 308.152344 C 181.375 307.8125 181.128906 307.402344 180.90625 306.929688 L 180.589844 306.167969 C 180.191406 305.089844 179.882812 303.75 179.660156 302.144531 C 179.5625 300.71875 179.675781 299.300781 180.007812 297.894531 C 180.171875 297.191406 180.390625 296.492188 180.664062 295.796875 C 180.9375 295.101562 181.261719 294.40625 181.644531 293.714844 L 182.253906 292.679688 C 182.898438 291.675781 183.730469 290.667969 184.746094 289.660156 C 185.257812 289.15625 185.8125 288.652344 186.414062 288.144531 C 188.003906 286.882812 189.015625 286.125 189.445312 285.871094 " fill-opacity="1" fill-rule="nonzero"/><path fill="#b5b6b5" d="M 193.847656 307.164062 L 180.84375 309.597656 C 181.28125 309.777344 181.644531 309.902344 181.9375 309.972656 C 182.820312 310.117188 183.636719 310.285156 184.386719 310.476562 C 185.386719 310.652344 186.085938 310.78125 186.480469 310.863281 C 187.074219 310.957031 187.609375 310.949219 188.09375 310.84375 C 188.652344 310.683594 189.183594 310.5 189.683594 310.292969 L 190.414062 309.960938 C 190.882812 309.722656 191.324219 309.464844 191.738281 309.179688 C 192.5625 308.609375 193.265625 307.9375 193.847656 307.164062 " fill-opacity="1" fill-rule="nonzero"/><path fill="#b5b6b5" d="M 178.554688 307 L 191.503906 309.710938 C 191.0625 309.882812 190.695312 309.996094 190.402344 310.0625 C 189.515625 310.191406 188.699219 310.339844 187.941406 310.511719 C 186.9375 310.667969 186.238281 310.78125 185.84375 310.855469 C 185.25 310.9375 184.710938 310.917969 184.230469 310.804688 C 183.675781 310.632812 183.148438 310.4375 182.652344 310.21875 L 181.929688 309.867188 C 181.464844 309.625 181.027344 309.355469 180.621094 309.0625 C 179.808594 308.472656 179.121094 307.785156 178.554688 307 " fill-opacity="1" fill-rule="nonzero"/><path fill="#b5b6b5" d="M 192.671875 305.953125 L 183.386719 310.851562 L 184.691406 311.132812 C 184.851562 311.152344 185.101562 311.148438 185.441406 311.117188 C 187.070312 310.9375 188.667969 310.71875 190.238281 310.460938 C 190.671875 310.386719 191.015625 310.28125 191.273438 310.140625 C 191.558594 309.929688 191.746094 309.75 191.828125 309.601562 C 191.957031 309.421875 192.066406 309.214844 192.15625 308.980469 C 192.410156 308.125 192.582031 307.117188 192.671875 305.953125 " fill-opacity="1" fill-rule="nonzero"/><path fill="#b5b6b5" d="M 179.757812 305.816406 L 188.9375 310.910156 L 187.625 311.164062 C 187.464844 311.179688 187.214844 311.171875 186.875 311.132812 C 185.25 310.917969 183.65625 310.667969 182.09375 310.375 C 181.664062 310.292969 181.320312 310.175781 181.066406 310.03125 C 180.785156 309.816406 180.601562 309.632812 180.519531 309.480469 C 180.398438 309.300781 180.292969 309.089844 180.207031 308.855469 C 179.96875 307.992188 179.820312 306.980469 179.757812 305.816406 " fill-opacity="1" fill-rule="nonzero"/><path fill="#b5b6b5" d="M 208.257812 308.089844 L 206.996094 308.171875 C 204.628906 308.324219 203.152344 308.421875 202.566406 308.46875 C 201.738281 308.539062 200.789062 308.628906 199.722656 308.746094 L 208.257812 308.089844 M 199.707031 308.746094 L 193.882812 309.195312 C 194.03125 309.195312 194.183594 309.191406 194.34375 309.1875 C 194.507812 309.183594 194.675781 309.179688 194.851562 309.171875 L 195.121094 309.160156 C 195.445312 309.144531 195.886719 309.113281 196.445312 309.074219 C 196.800781 309.046875 197.277344 309.003906 197.867188 308.945312 L 199.707031 308.746094 " fill-opacity="1" fill-rule="nonzero"/><path fill="#b5b6b5" d="M 164.128906 307.621094 L 165.386719 307.726562 C 167.75 307.933594 169.226562 308.0625 169.808594 308.121094 C 170.640625 308.207031 171.585938 308.320312 172.648438 308.457031 L 164.128906 307.621094 M 172.664062 308.460938 L 178.476562 309.03125 C 178.328125 309.027344 178.175781 309.023438 178.015625 309.015625 C 177.855469 309.007812 177.683594 309 177.507812 308.988281 L 177.238281 308.96875 C 176.914062 308.945312 176.472656 308.910156 175.917969 308.855469 C 175.5625 308.820312 175.085938 308.769531 174.5 308.699219 L 172.664062 308.460938 " fill-opacity="1" fill-rule="nonzero"/><path fill="#b5b6b5" d="M 273.878906 258.0625 L 174.425781 313.050781 C 181.542969 314.511719 190.550781 314.441406 201.445312 312.828125 C 217.152344 309.800781 227.660156 306.703125 232.960938 303.539062 C 246.953125 296.019531 259.070312 286.996094 269.3125 276.464844 C 272.230469 273.65625 275.476562 269.492188 279.050781 263.96875 C 278.410156 261.6875 276.683594 259.71875 273.878906 258.0625 " fill-opacity="1" fill-rule="nonzero"/><path fill="#b5b6b5" d="M 99.585938 256.214844 L 197.847656 313.296875 C 190.699219 314.609375 181.695312 314.34375 170.835938 312.503906 C 155.199219 309.140625 144.761719 305.824219 139.527344 302.546875 C 125.695312 294.734375 113.773438 285.453125 103.757812 274.707031 C 100.898438 271.839844 97.742188 267.605469 94.289062 262.007812 C 94.976562 259.738281 96.742188 257.804688 99.585938 256.214844 " fill-opacity="1" fill-rule="nonzero"/></svg>