<svg xmlns="http://www.w3.org/2000/svg" xmlns:xlink="http://www.w3.org/1999/xlink" width="500" zoomAndPan="magnify" viewBox="0 0 375 374.999991" height="500" preserveAspectRatio="xMidYMid meet" version="1.0"><defs><clipPath id="7a4ad206db"><path d="M 133 132 L 270 132 L 270 304.894531 L 133 304.894531 Z M 133 132 " clip-rule="nonzero"/></clipPath><clipPath id="3be12f8cfc"><path d="M 69.066406 256 L 110 256 L 110 283 L 69.066406 283 Z M 69.066406 256 " clip-rule="nonzero"/></clipPath><clipPath id="009f35eb82"><path d="M 87 70.144531 L 306 70.144531 L 306 254 L 87 254 Z M 87 70.144531 " clip-rule="nonzero"/></clipPath></defs><g clip-path="url(#7a4ad206db)"><path fill="#737373" d="M 223.027344 155.308594 L 211.46875 171.703125 L 196.140625 193.449219 L 243.441406 172.945312 L 243.441406 208.03125 C 243.441406 209.507812 243.335938 210.976562 243.121094 212.4375 C 242.90625 213.898438 242.589844 215.335938 242.167969 216.75 C 241.746094 218.164062 241.222656 219.542969 240.597656 220.882812 C 239.976562 222.21875 239.257812 223.507812 238.449219 224.742188 C 237.640625 225.976562 236.742188 227.144531 235.761719 228.25 C 234.78125 229.355469 233.726562 230.382812 232.597656 231.332031 C 231.46875 232.285156 230.277344 233.148438 229.019531 233.925781 C 227.765625 234.703125 226.460938 235.386719 225.105469 235.972656 L 159.890625 264.503906 C 157.945312 265.355469 156.070312 266.34375 154.265625 267.46875 C 152.464844 268.59375 150.75 269.839844 149.128906 271.214844 C 147.507812 272.585938 145.996094 274.066406 144.585938 275.660156 C 143.179688 277.25 141.894531 278.9375 140.734375 280.714844 C 139.570312 282.492188 138.542969 284.34375 137.648438 286.273438 C 136.757812 288.199219 136.007812 290.179688 135.398438 292.214844 C 134.792969 294.253906 134.335938 296.320312 134.03125 298.421875 C 133.726562 300.523438 133.570312 302.636719 133.570312 304.761719 L 133.570312 304.796875 L 251.566406 253.339844 C 252.921875 252.753906 254.226562 252.070312 255.484375 251.292969 C 256.738281 250.515625 257.933594 249.648438 259.0625 248.699219 C 260.191406 247.746094 261.25 246.71875 262.230469 245.613281 C 263.210938 244.511719 264.105469 243.339844 264.917969 242.105469 C 265.726562 240.871094 266.445312 239.582031 267.066406 238.242188 C 267.691406 236.90625 268.214844 235.527344 268.636719 234.113281 C 269.058594 232.695312 269.378906 231.257812 269.589844 229.796875 C 269.804688 228.332031 269.910156 226.863281 269.910156 225.386719 L 269.910156 132.628906 L 229.207031 150.273438 C 226.671875 151.367188 224.613281 153.046875 223.027344 155.308594 Z M 223.027344 155.308594 " fill-opacity="1" fill-rule="nonzero"/></g><path fill="#ffffff" d="M 103.726562 205.59375 C 104.75 205.59375 105.730469 205.390625 106.671875 204.984375 L 125.121094 197.039062 C 125.570312 196.84375 126 196.609375 126.402344 196.328125 C 126.808594 196.050781 127.183594 195.738281 127.523438 195.386719 C 127.867188 195.03125 128.171875 194.652344 128.441406 194.238281 C 128.707031 193.828125 128.933594 193.394531 129.113281 192.9375 C 129.296875 192.480469 129.433594 192.011719 129.519531 191.53125 C 129.609375 191.046875 129.652344 190.558594 129.644531 190.070312 C 129.640625 189.578125 129.585938 189.09375 129.484375 188.613281 C 129.382812 188.132812 129.234375 187.667969 129.039062 187.214844 C 128.847656 186.765625 128.609375 186.335938 128.332031 185.933594 C 128.054688 185.527344 127.738281 185.152344 127.386719 184.8125 C 127.035156 184.46875 126.652344 184.164062 126.242188 183.894531 C 125.832031 183.628906 125.398438 183.402344 124.941406 183.222656 C 124.484375 183.039062 124.015625 182.902344 123.53125 182.8125 C 123.050781 182.726562 122.5625 182.683594 122.070312 182.691406 C 121.582031 182.695312 121.09375 182.75 120.613281 182.851562 C 120.136719 182.953125 119.667969 183.101562 119.21875 183.296875 L 100.769531 191.242188 C 100.375 191.410156 100 191.613281 99.640625 191.84375 C 99.285156 192.078125 98.949219 192.339844 98.632812 192.628906 C 98.320312 192.921875 98.03125 193.234375 97.773438 193.574219 C 97.515625 193.914062 97.285156 194.273438 97.085938 194.652344 C 96.890625 195.03125 96.726562 195.425781 96.59375 195.832031 C 96.464844 196.238281 96.367188 196.65625 96.308594 197.078125 C 96.25 197.5 96.226562 197.925781 96.242188 198.355469 C 96.253906 198.78125 96.304688 199.207031 96.390625 199.625 C 96.476562 200.042969 96.597656 200.449219 96.753906 200.847656 C 96.910156 201.246094 97.101562 201.628906 97.320312 201.996094 C 97.542969 202.359375 97.792969 202.703125 98.074219 203.027344 C 98.355469 203.347656 98.664062 203.644531 98.996094 203.914062 C 99.324219 204.183594 99.679688 204.425781 100.050781 204.632812 C 100.425781 204.84375 100.8125 205.019531 101.214844 205.164062 C 101.617188 205.304688 102.03125 205.414062 102.453125 205.484375 C 102.871094 205.558594 103.296875 205.59375 103.726562 205.59375 Z M 103.726562 205.59375 " fill-opacity="1" fill-rule="nonzero"/><path fill="#ffffff" d="M 122.722656 246.945312 L 116.90625 249.328125 C 116.453125 249.519531 116.027344 249.757812 115.621094 250.035156 C 115.214844 250.3125 114.839844 250.628906 114.496094 250.980469 C 114.15625 251.332031 113.847656 251.710938 113.582031 252.125 C 113.3125 252.535156 113.089844 252.96875 112.90625 253.425781 C 112.722656 253.882812 112.585938 254.351562 112.5 254.835938 C 112.410156 255.316406 112.367188 255.804688 112.371094 256.296875 C 112.378906 256.789062 112.433594 257.273438 112.535156 257.753906 C 112.636719 258.234375 112.785156 258.699219 112.980469 259.152344 C 113.171875 259.601562 113.410156 260.03125 113.6875 260.4375 C 113.964844 260.839844 114.28125 261.214844 114.632812 261.558594 C 114.984375 261.902344 115.367188 262.207031 115.777344 262.472656 C 116.191406 262.742188 116.625 262.964844 117.082031 263.148438 C 117.539062 263.328125 118.007812 263.464844 118.492188 263.554688 C 118.972656 263.644531 119.460938 263.683594 119.953125 263.679688 C 120.445312 263.671875 120.929688 263.617188 121.410156 263.515625 C 121.890625 263.410156 122.355469 263.261719 122.808594 263.070312 L 128.628906 260.6875 C 129.078125 260.492188 129.503906 260.257812 129.910156 259.976562 C 130.3125 259.699219 130.6875 259.382812 131.027344 259.03125 C 131.371094 258.679688 131.675781 258.300781 131.941406 257.886719 C 132.207031 257.476562 132.433594 257.042969 132.613281 256.585938 C 132.796875 256.128906 132.929688 255.660156 133.019531 255.179688 C 133.109375 254.695312 133.152344 254.210938 133.144531 253.71875 C 133.136719 253.226562 133.082031 252.742188 132.980469 252.261719 C 132.878906 251.78125 132.730469 251.316406 132.535156 250.867188 C 132.34375 250.417969 132.105469 249.988281 131.828125 249.585938 C 131.550781 249.179688 131.238281 248.804688 130.886719 248.464844 C 130.535156 248.121094 130.152344 247.816406 129.742188 247.550781 C 129.328125 247.28125 128.894531 247.058594 128.441406 246.875 C 127.984375 246.691406 127.515625 246.558594 127.035156 246.46875 C 126.550781 246.378906 126.066406 246.335938 125.574219 246.34375 C 125.082031 246.347656 124.597656 246.402344 124.117188 246.503906 C 123.636719 246.605469 123.171875 246.753906 122.722656 246.945312 Z M 122.722656 246.945312 " fill-opacity="1" fill-rule="nonzero"/><g clip-path="url(#3be12f8cfc)"><path fill="#ffffff" d="M 98.578125 257.121094 L 73.59375 267.6875 C 73.140625 267.882812 72.714844 268.121094 72.308594 268.398438 C 71.90625 268.675781 71.53125 268.992188 71.1875 269.34375 C 70.847656 269.695312 70.542969 270.074219 70.273438 270.488281 C 70.007812 270.898438 69.78125 271.332031 69.601562 271.789062 C 69.417969 272.246094 69.28125 272.714844 69.191406 273.199219 C 69.105469 273.679688 69.0625 274.167969 69.070312 274.660156 C 69.074219 275.148438 69.128906 275.636719 69.230469 276.117188 C 69.335938 276.597656 69.480469 277.0625 69.675781 277.511719 C 69.871094 277.964844 70.105469 278.390625 70.382812 278.796875 C 70.664062 279.203125 70.976562 279.574219 71.328125 279.917969 C 71.679688 280.261719 72.0625 280.566406 72.476562 280.832031 C 72.886719 281.101562 73.320312 281.324219 73.777344 281.507812 C 74.234375 281.6875 74.703125 281.824219 75.183594 281.914062 C 75.667969 282.003906 76.15625 282.042969 76.644531 282.039062 C 77.136719 282.03125 77.621094 281.976562 78.101562 281.875 C 78.582031 281.773438 79.046875 281.625 79.5 281.429688 L 104.484375 270.859375 C 104.933594 270.667969 105.363281 270.429688 105.769531 270.152344 C 106.171875 269.875 106.546875 269.558594 106.890625 269.207031 C 107.230469 268.855469 107.535156 268.472656 107.804688 268.0625 C 108.070312 267.648438 108.296875 267.214844 108.476562 266.761719 C 108.660156 266.304688 108.796875 265.835938 108.882812 265.351562 C 108.972656 264.867188 109.015625 264.382812 109.007812 263.890625 C 109.003906 263.398438 108.949219 262.914062 108.847656 262.433594 C 108.742188 261.953125 108.597656 261.488281 108.402344 261.035156 C 108.207031 260.585938 107.972656 260.15625 107.695312 259.753906 C 107.414062 259.347656 107.101562 258.976562 106.75 258.632812 C 106.398438 258.289062 106.015625 257.984375 105.601562 257.71875 C 105.191406 257.449219 104.757812 257.226562 104.300781 257.042969 C 103.84375 256.863281 103.375 256.726562 102.894531 256.636719 C 102.410156 256.546875 101.921875 256.503906 101.433594 256.511719 C 100.941406 256.519531 100.457031 256.574219 99.976562 256.675781 C 99.496094 256.777344 99.027344 256.925781 98.578125 257.121094 Z M 98.578125 257.121094 " fill-opacity="1" fill-rule="nonzero"/></g><g clip-path="url(#009f35eb82)"><path fill="#ffffff" d="M 305.925781 70.195312 C 305.925781 72.324219 305.773438 74.445312 305.464844 76.550781 C 305.15625 78.660156 304.699219 80.734375 304.089844 82.777344 C 303.476562 84.820312 302.722656 86.804688 301.824219 88.738281 C 300.925781 90.667969 299.890625 92.523438 298.722656 94.304688 C 297.554688 96.085938 296.261719 97.773438 294.847656 99.367188 C 293.433594 100.960938 291.910156 102.441406 290.28125 103.816406 C 288.648438 105.1875 286.929688 106.433594 285.117188 107.554688 C 283.304688 108.675781 281.421875 109.660156 279.46875 110.507812 L 234.886719 129.839844 L 195.785156 146.792969 C 194.484375 147.355469 193.234375 148.011719 192.027344 148.757812 C 190.824219 149.503906 189.679688 150.332031 188.59375 151.246094 C 187.511719 152.15625 186.5 153.144531 185.558594 154.203125 C 184.617188 155.261719 183.757812 156.386719 182.980469 157.570312 C 182.203125 158.753906 181.515625 159.988281 180.917969 161.273438 C 180.320312 162.558594 179.816406 163.878906 179.410156 165.238281 C 179.003906 166.59375 178.699219 167.976562 178.496094 169.378906 C 178.289062 170.777344 178.1875 172.1875 178.1875 173.605469 L 178.1875 217.125 L 225.488281 196.605469 L 210.335938 218.0625 L 205.039062 225.5625 C 203.582031 227.640625 201.6875 229.183594 199.363281 230.199219 L 151.730469 250.78125 L 151.730469 250.621094 L 146.785156 252.746094 C 146.304688 252.953125 145.804688 253.105469 145.289062 253.210938 C 144.773438 253.3125 144.253906 253.359375 143.726562 253.351562 C 143.203125 253.34375 142.683594 253.28125 142.171875 253.164062 C 141.65625 253.046875 141.164062 252.878906 140.6875 252.660156 C 140.210938 252.4375 139.761719 252.167969 139.339844 251.855469 C 138.921875 251.539062 138.539062 251.183594 138.191406 250.785156 C 137.847656 250.390625 137.546875 249.960938 137.292969 249.503906 C 137.035156 249.042969 136.832031 248.5625 136.679688 248.058594 C 136.550781 247.613281 136.460938 247.160156 136.417969 246.703125 C 136.371094 246.242188 136.367188 245.78125 136.40625 245.320312 C 136.445312 244.859375 136.523438 244.402344 136.644531 243.957031 C 136.765625 243.511719 136.925781 243.078125 137.125 242.660156 C 137.328125 242.242188 137.5625 241.847656 137.835938 241.472656 C 138.105469 241.097656 138.410156 240.753906 138.746094 240.433594 C 139.082031 240.113281 139.445312 239.828125 139.832031 239.578125 C 140.21875 239.324219 140.625 239.109375 141.054688 238.929688 L 154.535156 233.136719 L 158.695312 231.34375 C 159.117188 231.167969 159.523438 230.957031 159.90625 230.707031 C 160.292969 230.457031 160.652344 230.171875 160.984375 229.855469 C 161.316406 229.539062 161.617188 229.195312 161.886719 228.824219 C 162.15625 228.449219 162.386719 228.058594 162.582031 227.644531 C 162.78125 227.226562 162.9375 226.796875 163.054688 226.355469 C 163.171875 225.910156 163.25 225.460938 163.28125 225.003906 C 163.316406 224.542969 163.308594 224.085938 163.257812 223.632812 C 163.210938 223.175781 163.117188 222.726562 162.984375 222.289062 C 162.855469 221.847656 162.683594 221.425781 162.472656 221.015625 C 162.261719 220.609375 162.015625 220.222656 161.734375 219.859375 C 161.453125 219.5 161.140625 219.164062 160.796875 218.859375 C 160.453125 218.554688 160.085938 218.285156 159.691406 218.046875 C 159.300781 217.808594 158.890625 217.609375 158.460938 217.449219 C 158.03125 217.285156 157.589844 217.164062 157.136719 217.085938 C 156.683594 217.003906 156.230469 216.96875 155.769531 216.972656 C 155.3125 216.972656 154.855469 217.019531 154.40625 217.109375 L 98.070312 241.007812 C 97.617188 241.203125 97.152344 241.351562 96.671875 241.453125 C 96.191406 241.554688 95.707031 241.609375 95.214844 241.617188 C 94.722656 241.621094 94.238281 241.582031 93.753906 241.492188 C 93.269531 241.402344 92.800781 241.265625 92.34375 241.085938 C 91.890625 240.902344 91.457031 240.679688 91.042969 240.410156 C 90.632812 240.144531 90.25 239.839844 89.898438 239.496094 C 89.546875 239.152344 89.230469 238.78125 88.953125 238.375 C 88.675781 237.972656 88.4375 237.542969 88.246094 237.09375 C 88.050781 236.640625 87.902344 236.175781 87.800781 235.695312 C 87.699219 235.214844 87.644531 234.730469 87.636719 234.238281 C 87.632812 233.746094 87.671875 233.261719 87.761719 232.777344 C 87.851562 232.292969 87.988281 231.824219 88.167969 231.367188 C 88.351562 230.914062 88.574219 230.476562 88.84375 230.066406 C 89.109375 229.65625 89.414062 229.273438 89.757812 228.921875 C 90.101562 228.570312 90.472656 228.253906 90.878906 227.976562 C 91.285156 227.699219 91.710938 227.460938 92.164062 227.269531 L 156.539062 199.980469 C 156.582031 199.957031 156.621094 199.949219 156.664062 199.933594 L 161.871094 197.695312 C 162.316406 197.5 162.734375 197.257812 163.132812 196.980469 C 163.53125 196.699219 163.898438 196.382812 164.234375 196.03125 C 164.570312 195.675781 164.871094 195.296875 165.132812 194.886719 C 165.394531 194.472656 165.613281 194.042969 165.789062 193.589844 C 165.96875 193.136719 166.097656 192.667969 166.183594 192.191406 C 166.273438 191.710938 166.3125 191.226562 166.300781 190.742188 C 166.292969 190.253906 166.238281 189.773438 166.136719 189.296875 C 166.035156 188.820312 165.886719 188.359375 165.695312 187.910156 C 165.503906 187.464844 165.269531 187.039062 164.996094 186.636719 C 164.71875 186.234375 164.410156 185.863281 164.0625 185.523438 C 163.714844 185.183594 163.335938 184.878906 162.929688 184.613281 C 162.523438 184.34375 162.09375 184.117188 161.640625 183.933594 C 161.191406 183.753906 160.726562 183.613281 160.25 183.519531 C 159.769531 183.429688 159.289062 183.382812 158.800781 183.382812 C 158.3125 183.386719 157.832031 183.433594 157.355469 183.527344 C 156.878906 183.625 156.414062 183.765625 155.964844 183.953125 L 151.730469 185.773438 L 151.730469 185.75 L 147.539062 187.546875 C 147.085938 187.738281 146.621094 187.886719 146.140625 187.988281 C 145.660156 188.089844 145.175781 188.144531 144.683594 188.148438 C 144.195312 188.15625 143.707031 188.113281 143.222656 188.023438 C 142.742188 187.933594 142.273438 187.800781 141.816406 187.617188 C 141.359375 187.433594 140.925781 187.210938 140.515625 186.941406 C 140.105469 186.675781 139.722656 186.371094 139.371094 186.027344 C 139.019531 185.683594 138.707031 185.3125 138.425781 184.90625 C 138.148438 184.503906 137.914062 184.074219 137.71875 183.625 C 137.527344 183.171875 137.378906 182.707031 137.277344 182.226562 C 137.175781 181.746094 137.121094 181.261719 137.113281 180.769531 C 137.105469 180.28125 137.148438 179.792969 137.238281 179.3125 C 137.328125 178.828125 137.464844 178.359375 137.644531 177.902344 C 137.828125 177.449219 138.050781 177.015625 138.316406 176.601562 C 138.585938 176.191406 138.890625 175.808594 139.234375 175.457031 C 139.574219 175.105469 139.949219 174.789062 140.351562 174.511719 C 140.757812 174.234375 141.183594 174 141.636719 173.804688 L 160.101562 165.882812 C 160.21875 165.832031 160.335938 165.796875 160.445312 165.753906 L 168.363281 162.347656 C 168.804688 162.152344 169.226562 161.914062 169.621094 161.636719 C 170.015625 161.355469 170.382812 161.042969 170.71875 160.695312 C 171.054688 160.34375 171.351562 159.964844 171.613281 159.558594 C 171.875 159.148438 172.09375 158.71875 172.273438 158.269531 C 172.453125 157.820312 172.585938 157.355469 172.671875 156.878906 C 172.761719 156.402344 172.800781 155.921875 172.796875 155.4375 C 172.792969 154.953125 172.738281 154.476562 172.640625 154 C 172.542969 153.527344 172.398438 153.066406 172.210938 152.621094 C 172.023438 152.171875 171.796875 151.75 171.523438 151.347656 C 171.253906 150.945312 170.949219 150.574219 170.605469 150.230469 C 170.261719 149.886719 169.890625 149.582031 169.488281 149.3125 C 169.085938 149.042969 168.660156 148.8125 168.214844 148.625 C 167.769531 148.4375 167.308594 148.296875 166.832031 148.199219 C 166.359375 148.097656 165.878906 148.046875 165.394531 148.042969 C 164.910156 148.039062 164.429688 148.082031 163.953125 148.167969 C 163.476562 148.257812 163.015625 148.390625 162.566406 148.570312 L 114.847656 169.066406 C 114.394531 169.261719 113.929688 169.410156 113.449219 169.511719 C 112.96875 169.613281 112.484375 169.667969 111.992188 169.671875 C 111.503906 169.679688 111.015625 169.636719 110.53125 169.546875 C 110.050781 169.460938 109.582031 169.324219 109.125 169.140625 C 108.667969 168.960938 108.234375 168.734375 107.824219 168.46875 C 107.410156 168.199219 107.03125 167.894531 106.679688 167.550781 C 106.328125 167.210938 106.011719 166.835938 105.734375 166.429688 C 105.457031 166.027344 105.21875 165.597656 105.027344 165.148438 C 104.832031 164.695312 104.683594 164.230469 104.582031 163.75 C 104.480469 163.269531 104.425781 162.785156 104.417969 162.292969 C 104.414062 161.800781 104.453125 161.316406 104.542969 160.832031 C 104.632812 160.351562 104.769531 159.878906 104.953125 159.425781 C 105.132812 158.96875 105.359375 158.535156 105.625 158.125 C 105.894531 157.710938 106.199219 157.328125 106.539062 156.976562 C 106.882812 156.625 107.257812 156.3125 107.660156 156.035156 C 108.066406 155.753906 108.496094 155.519531 108.945312 155.324219 L 182.472656 123.730469 Z M 305.925781 70.195312 " fill-opacity="1" fill-rule="nonzero"/></g></svg>